M48
; DRILL file {KiCad 9.0.4-9.0.4-0~ubuntu24.04.1} date 2025-09-21T15:36:17+0200
; FORMAT={-:-/ absolute / metric / decimal}
; #@! TF.CreationDate,2025-09-21T15:36:17+02:00
; #@! TF.GenerationSoftware,Kicad,Pcbnew,9.0.4-9.0.4-0~ubuntu24.04.1
; #@! TF.FileFunction,Plated,1,4,PTH
FMAT,2
METRIC
; #@! TA.AperFunction,Plated,PTH,ViaDrill
T1C0.300
; #@! TA.AperFunction,Plated,PTH,ComponentDrill
T2C0.600
; #@! TA.AperFunction,Plated,PTH,ComponentDrill
T3C0.950
; #@! TA.AperFunction,Plated,PTH,ComponentDrill
T4C1.000
; #@! TA.AperFunction,Plated,PTH,ComponentDrill
T5C1.400
; #@! TA.AperFunction,Plated,PTH,ComponentDrill
T6C2.200
%
G90
G05
T1
X94.16Y-73.17
X94.16Y-77.59
X94.16Y-82.01
X94.16Y-86.43
X94.16Y-90.85
X94.34Y-55.5
X94.34Y-59.92
X94.34Y-64.34
X94.34Y-68.76
X94.34Y-95.28
X94.34Y-99.7
X94.34Y-104.12
X94.34Y-108.54
X94.34Y-112.96
X94.34Y-117.38
X94.34Y-121.8
X94.34Y-126.22
X94.34Y-130.64
X94.34Y-135.06
X94.34Y-139.48
X96.26Y-117.87
X96.26Y-119.69
X96.28Y-98.92
X96.28Y-100.74
X96.56Y-80.11
X96.56Y-81.93
X98.78Y-51.08
X98.78Y-59.92
X98.78Y-64.34
X98.78Y-68.76
X98.78Y-73.18
X98.78Y-92.87
X98.78Y-95.28
X98.78Y-99.7
X98.78Y-104.12
X98.78Y-108.54
X98.78Y-112.96
X98.78Y-117.38
X98.78Y-121.8
X98.78Y-126.22
X98.78Y-130.64
X98.78Y-143.9
X99.09Y-135.45
X99.1Y-134.06
X99.31Y-89.06
X99.76Y-88.61
X103.21Y-115.17
X103.22Y-51.08
X103.22Y-55.5
X103.22Y-59.92
X103.22Y-64.34
X103.22Y-68.76
X103.22Y-73.18
X103.22Y-77.09
X103.22Y-112.96
X103.22Y-117.38
X103.22Y-121.8
X103.22Y-143.9
X103.23Y-139.47
X106.85Y-139.54
X106.86Y-84.95
X107.03Y-85.94
X107.04Y-86.71
X107.66Y-51.08
X107.66Y-64.34
X107.66Y-68.76
X107.66Y-82.02
X107.66Y-104.12
X107.66Y-108.54
X107.66Y-113.12
X107.66Y-143.9
X107.97Y-84.38
X108.99Y-92.28
X109.37Y-110.47
X109.37Y-115.21
X109.39Y-93.66
X109.39Y-99.14
X109.4Y-105.88
X109.41Y-96.34
X109.43Y-91.59
X109.8Y-132.8
X109.8Y-134.1
X109.8Y-135.4
X109.8Y-136.9
X110.33Y-83.72
X111.04Y-85.13
X111.14Y-82.07
X112.1Y-51.08
X112.1Y-64.34
X112.1Y-68.76
X112.1Y-77.09
X112.1Y-143.9
X112.11Y-139.83
X113.76Y-115.21
X113.77Y-108.6
X113.8Y-64.31
X113.82Y-55.69
X113.83Y-68.76
X114.64Y-135.35
X114.66Y-132.8
X114.66Y-134.1
X114.98Y-139.8
X115.6Y-143.25
X115.62Y-100.17
X115.69Y-87.3
X115.8Y-82.14
X115.8Y-85.16
X116.18Y-55.7
X116.2Y-115.21
X116.2Y-124.42
X116.2Y-126.22
X116.2Y-130.99
X116.22Y-64.31
X116.54Y-51.08
X116.54Y-68.76
X116.54Y-77.09
X116.54Y-143.9
X116.89Y-110.31
X117.44Y-117.36
X117.44Y-121.78
X117.48Y-126.22
X117.48Y-135.35
X117.5Y-132.8
X117.5Y-134.1
X117.51Y-130.99
X118.05Y-92.69
X118.25Y-134.81
X118.48Y-106.34
X118.51Y-88.56
X118.52Y-104.12
X118.58Y-93.11
X118.83Y-89.17
X118.87Y-93.87
X118.99Y-115.21
X119.03Y-117.38
X119.03Y-121.8
X119.14Y-87.27
X119.15Y-90.8
X119.205Y-94.505
X119.28Y-126.22
X119.28Y-135.35
X119.29Y-139.8
X119.3Y-132.8
X119.3Y-134.1
X119.31Y-130.99
X119.79Y-96.36
X119.79Y-99.42
X120.47Y-91.4
X120.63Y-58.72
X120.97Y-115.21
X120.98Y-51.08
X120.98Y-64.34
X120.98Y-68.76
X120.98Y-77.09
X120.98Y-82.02
X120.98Y-104.12
X120.98Y-108.54
X120.98Y-112.96
X120.98Y-117.38
X120.98Y-121.8
X120.98Y-126.22
X120.98Y-143.9
X121.0Y-99.46
X121.0Y-101.9
X121.0Y-106.3
X121.0Y-109.9
X121.0Y-111.4
X121.02Y-85.17
X121.17Y-90.67
X121.18Y-135.35
X121.2Y-132.8
X121.2Y-134.1
X121.21Y-130.99
X121.28Y-95.57
X121.85Y-139.8
X122.0Y-82.3
X122.35Y-55.48
X122.57Y-84.9
X123.42Y-107.82
X123.51Y-115.21
X123.85Y-90.75
X123.93Y-112.68
X124.2Y-101.9
X124.3Y-126.2
X124.3Y-130.6
X124.3Y-132.8
X124.3Y-134.1
X124.3Y-135.4
X124.3Y-136.9
X124.43Y-123.29
X124.45Y-84.35
X124.67Y-85.95
X124.8Y-87.3
X125.28Y-81.63
X125.28Y-83.02
X125.4Y-95.65
X125.4Y-132.1
X125.42Y-51.08
X125.42Y-55.5
X125.42Y-59.92
X125.42Y-64.34
X125.42Y-68.76
X125.42Y-73.18
X125.42Y-77.6
X125.42Y-104.12
X125.42Y-108.54
X125.42Y-139.48
X125.42Y-143.9
X125.44Y-99.46
X125.5Y-56.2
X125.81Y-136.15
X125.9Y-113.25
X126.71Y-89.78
X126.71Y-90.46
X126.9Y-94.01
X126.91Y-117.36
X126.98Y-88.52
X127.0Y-121.8
X127.05Y-126.16
X127.08Y-130.65
X127.3Y-82.8
X127.53Y-93.51
X127.58Y-84.35
X127.6Y-89.1
X127.6Y-89.9
X127.61Y-92.54
X127.686Y-87.284
X127.7Y-83.4
X127.7Y-101.5
X127.74Y-132.21
X127.75Y-97.77
X127.8Y-103.7
X127.83Y-107.12
X127.9Y-86.0
X127.98Y-100.47
X127.984Y-97.19
X128.0Y-88.04
X128.04Y-115.15
X128.1Y-75.25
X128.1Y-93.0
X128.54Y-122.75
X128.54Y-123.62
X128.7Y-133.66
X129.01Y-109.9
X129.01Y-111.39
X129.01Y-112.67
X129.1Y-75.75
X129.67Y-122.75
X129.7Y-123.62
X129.86Y-51.08
X129.86Y-55.5
X129.86Y-59.92
X129.86Y-64.34
X129.86Y-68.76
X129.86Y-73.18
X129.86Y-77.6
X129.86Y-117.38
X129.86Y-121.8
X129.86Y-139.48
X129.86Y-143.9
X130.15Y-133.69
X130.35Y-95.5
X130.36Y-119.05
X130.51Y-81.53
X130.6Y-85.9
X130.6Y-87.7
X130.6Y-102.25
X130.6Y-103.6
X130.69Y-126.16
X130.7Y-130.54
X130.8Y-83.4
X130.8Y-84.2
X130.84Y-97.9
X130.85Y-101.05
X130.9Y-79.2
X131.1Y-119.06
X131.22Y-113.12
X131.49Y-77.59
X131.5Y-89.4
X131.53Y-133.65
X131.8Y-122.8
X131.9Y-119.6
X132.0Y-86.6
X132.2Y-74.5
X132.2Y-108.0
X132.6Y-114.48
X132.7Y-82.8
X132.72Y-73.9
X133.24Y-79.79
X133.3Y-110.38
X133.4Y-102.3
X133.4Y-118.3
X133.8Y-130.65
X133.88Y-77.66
X133.9Y-73.24
X134.06Y-126.16
X134.07Y-122.82
X134.1Y-103.75
X134.22Y-115.5
X134.29Y-93.25
X134.3Y-51.08
X134.3Y-55.5
X134.3Y-59.92
X134.3Y-68.76
X134.3Y-86.44
X134.3Y-90.86
X134.3Y-95.28
X134.3Y-99.7
X134.3Y-118.3
X134.3Y-119.2
X134.3Y-139.48
X134.3Y-143.9
X134.7Y-85.6
X134.73Y-113.27
X135.01Y-123.81
X135.09Y-127.41
X135.2Y-118.3
X135.2Y-119.2
X135.2Y-132.16
X135.21Y-133.68
X135.3Y-114.9
X135.47Y-104.3
X135.49Y-77.66
X135.58Y-123.79
X135.6Y-122.8
X135.99Y-116.14
X136.0Y-108.0
X136.1Y-118.3
X136.1Y-119.2
X136.17Y-123.81
X136.5Y-83.3
X136.5Y-127.4
X136.86Y-78.73
X137.1Y-128.5
X137.1Y-129.5
X137.1Y-130.5
X137.2Y-127.3
X137.27Y-103.19
X137.3Y-84.1
X137.51Y-79.25
X138.1Y-128.5
X138.1Y-129.5
X138.1Y-130.5
X138.5Y-135.0
X138.6Y-86.44
X138.6Y-90.86
X138.6Y-95.28
X138.74Y-51.08
X138.74Y-55.5
X138.74Y-59.92
X138.74Y-64.34
X138.74Y-68.76
X138.74Y-73.18
X138.74Y-112.96
X138.74Y-117.38
X138.74Y-121.8
X138.74Y-126.22
X138.74Y-139.48
X138.74Y-143.9
X138.76Y-101.14
X138.9Y-108.0
X139.2Y-99.9
X139.2Y-133.7
X139.22Y-135.91
X139.25Y-134.36
X139.4Y-104.7
X140.0Y-83.1
X140.8Y-131.46
X140.84Y-129.02
X140.9Y-79.39
X141.0Y-78.1
X142.0Y-108.0
X142.11Y-132.03
X142.12Y-130.7
X142.4Y-84.1
X142.55Y-103.23
X143.18Y-51.08
X143.18Y-55.5
X143.18Y-59.92
X143.18Y-64.34
X143.18Y-68.76
X143.18Y-86.44
X143.18Y-90.86
X143.18Y-93.33
X143.18Y-95.28
X143.18Y-101.16
X143.18Y-111.52
X143.18Y-112.96
X143.18Y-143.9
X143.21Y-79.7
X143.37Y-132.82
X144.2Y-104.7
X144.28Y-78.86
X144.3Y-84.1
X144.4Y-108.0
X144.47Y-121.4
X144.6Y-78.1
X145.0Y-83.3
X145.28Y-103.18
X145.83Y-124.34
X145.86Y-137.76
X145.88Y-126.19
X145.88Y-130.61
X145.91Y-120.13
X145.91Y-133.54
X146.1Y-102.3
X146.2Y-61.0
X146.23Y-79.32
X146.6Y-104.6
X146.8Y-61.5
X147.01Y-62.6
X147.22Y-114.62
X147.3Y-84.1
X147.3Y-102.3
X147.3Y-104.7
X147.48Y-78.08
X147.61Y-88.23
X147.62Y-51.08
X147.62Y-68.76
X147.62Y-73.18
X147.62Y-86.44
X147.62Y-90.86
X147.62Y-93.36
X147.62Y-95.28
X147.62Y-143.9
X147.63Y-101.16
X147.69Y-64.93
X148.016Y-62.497
X148.02Y-137.77
X148.04Y-126.2
X148.04Y-130.62
X148.2Y-124.9
X148.4Y-85.5
X148.4Y-104.7
X148.77Y-58.1
X148.97Y-99.19
X148.99Y-124.52
X149.12Y-83.16
X149.26Y-101.16
X149.4Y-104.56
X149.58Y-99.97
X149.61Y-102.94
X150.25Y-98.82
X150.45Y-121.29
X150.67Y-137.73
X150.69Y-126.16
X150.69Y-130.58
X150.7Y-104.7
X150.87Y-98.25
X150.88Y-93.99
X150.98Y-125.37
X151.03Y-79.62
X151.08Y-95.77
X151.09Y-97.0
X151.27Y-57.67
X151.51Y-94.56
X151.66Y-102.97
X151.8Y-83.1
X152.04Y-73.2
X152.06Y-51.08
X152.06Y-64.34
X152.06Y-77.6
X152.06Y-90.86
X152.06Y-108.54
X152.06Y-112.96
X152.06Y-143.9
X152.08Y-89.18
X152.82Y-82.88
X152.91Y-105.13
X153.09Y-97.8
X153.16Y-101.14
X153.3Y-86.1
X153.3Y-87.5
X153.3Y-90.0
X153.35Y-93.5
X153.38Y-95.13
X153.39Y-97.16
X153.45Y-137.74
X153.47Y-130.6
X153.5Y-121.3
X153.53Y-124.58
X153.54Y-96.48
X153.585Y-91.398
X153.65Y-92.02
X154.6Y-82.1
X154.62Y-106.62
X154.63Y-114.43
X154.7Y-111.86
X154.72Y-109.32
X155.8Y-102.0
X155.92Y-93.0
X156.0Y-86.5
X156.1Y-129.5
X156.24Y-91.64
X156.27Y-89.99
X156.3Y-85.0
X156.47Y-94.47
X156.5Y-51.08
X156.5Y-55.5
X156.5Y-73.18
X156.5Y-77.6
X156.5Y-80.6
X156.5Y-82.02
X156.5Y-83.4
X156.5Y-130.64
X156.5Y-135.06
X156.5Y-139.48
X156.5Y-143.9
X156.52Y-97.97
X156.6Y-124.5
X156.75Y-87.29
X156.88Y-102.01
X157.26Y-114.39
X157.29Y-106.63
X157.29Y-109.35
X157.29Y-111.87
X157.57Y-95.0
X157.8Y-97.97
X158.19Y-91.57
X158.21Y-89.98
X158.32Y-93.91
X158.63Y-102.27
X158.85Y-92.42
X158.9Y-84.3
X158.9Y-84.925
X159.03Y-95.61
X159.1Y-97.96
X159.12Y-96.54
X159.5Y-88.8
X159.67Y-89.88
X159.69Y-92.26
X159.87Y-103.47
X160.94Y-51.08
X160.94Y-121.8
X160.94Y-126.22
X160.94Y-130.64
X160.94Y-135.06
X160.94Y-139.48
X160.94Y-143.9
X161.34Y-85.79
X161.59Y-80.11
X162.68Y-104.98
X162.74Y-102.59
X162.91Y-77.93
X164.14Y-99.37
X165.16Y-107.48
X165.16Y-110.06
X165.21Y-105.29
X165.38Y-51.08
X165.38Y-77.6
X165.38Y-86.44
X165.38Y-130.64
X165.38Y-135.06
X165.38Y-143.9
X165.55Y-102.96
X165.64Y-81.91
X165.66Y-80.67
X166.56Y-123.64
X166.86Y-97.5
X166.89Y-99.51
X168.17Y-86.49
X169.1Y-88.93
X169.17Y-123.59
X169.18Y-83.89
X169.77Y-78.61
X169.81Y-94.85
X169.82Y-51.08
X169.82Y-55.5
X169.82Y-59.92
X169.82Y-64.34
X169.82Y-68.76
X169.82Y-73.18
X169.82Y-77.6
X169.82Y-130.64
X169.82Y-143.9
X170.1Y-134.0
X170.1Y-135.0
X170.24Y-76.38
X170.29Y-96.74
X170.33Y-113.54
X170.35Y-110.68
X171.1Y-134.0
X171.1Y-135.0
X171.25Y-101.84
X171.25Y-105.29
X171.39Y-77.66
X171.39Y-81.92
X171.45Y-94.22
X171.56Y-87.15
X174.25Y-87.17
X174.26Y-51.08
X174.26Y-55.5
X174.26Y-59.92
X174.26Y-64.34
X174.26Y-68.76
X174.26Y-73.18
X174.26Y-77.6
X174.26Y-117.38
X174.26Y-121.8
X174.26Y-126.22
X174.26Y-130.64
X174.26Y-135.06
X174.26Y-139.48
X174.26Y-143.9
X174.27Y-81.88
X175.44Y-95.97
X176.02Y-95.07
X176.55Y-93.6
X177.04Y-93.02
X178.7Y-51.08
X178.7Y-59.92
X178.7Y-77.6
X178.7Y-95.28
X178.7Y-99.7
X178.7Y-112.96
X178.7Y-117.38
X178.7Y-130.64
X178.7Y-135.06
X178.7Y-143.9
X183.14Y-55.5
X183.14Y-59.92
X183.14Y-64.34
X183.14Y-68.76
X183.14Y-73.18
X183.14Y-77.6
X183.14Y-82.02
X183.14Y-86.44
X183.14Y-90.86
X183.14Y-95.28
X183.14Y-99.7
X183.14Y-104.12
X183.14Y-108.54
X183.14Y-112.96
X183.14Y-117.38
X183.14Y-121.8
X183.14Y-126.22
X183.14Y-130.64
X183.14Y-135.06
X183.14Y-139.48
T3
X96.27Y-65.1
X96.27Y-67.6
X96.27Y-70.1
X96.27Y-72.6
X96.27Y-75.1
X96.27Y-77.6
X96.32Y-84.05
X96.32Y-86.55
X96.32Y-89.05
X96.32Y-91.55
X96.32Y-94.05
X96.32Y-96.55
X96.32Y-103.15
X96.32Y-105.65
X96.32Y-108.15
X96.32Y-110.65
X96.32Y-113.15
X96.32Y-115.65
X96.32Y-122.15
X96.32Y-124.65
X96.32Y-127.15
X96.32Y-129.65
X96.32Y-132.15
X96.32Y-134.65
X104.1Y-118.8
X104.1Y-125.1
X104.1Y-131.2
X105.1Y-78.8
X105.1Y-85.2
X105.1Y-87.7
X105.1Y-90.2
X105.1Y-92.7
X105.1Y-95.2
X105.1Y-102.8
X105.1Y-105.3
X105.1Y-107.8
X105.1Y-110.3
X105.1Y-112.8
X106.6Y-118.8
X106.6Y-125.1
X106.6Y-131.2
X107.58Y-54.48
X107.6Y-60.55
X107.6Y-66.55
X107.6Y-72.55
X107.6Y-78.8
X109.1Y-118.8
X109.1Y-125.1
X109.1Y-131.2
X110.08Y-54.48
X110.1Y-60.55
X110.1Y-66.55
X110.1Y-72.55
X110.1Y-78.8
X111.6Y-118.8
X111.6Y-125.1
X111.6Y-131.2
X112.58Y-54.48
X112.6Y-60.55
X112.6Y-66.55
X112.6Y-72.55
X112.6Y-78.8
X114.1Y-118.8
X114.1Y-125.1
X114.1Y-131.2
X115.08Y-54.48
X115.1Y-60.55
X115.1Y-66.55
X115.1Y-72.55
X115.1Y-78.8
X117.58Y-54.48
X117.6Y-60.55
X117.6Y-66.55
X117.6Y-72.55
X117.6Y-78.8
X120.08Y-54.48
X120.1Y-60.55
X120.1Y-66.55
X120.1Y-72.55
X120.1Y-78.8
X128.6Y-53.9
X131.1Y-53.9
X133.6Y-53.9
X136.1Y-53.9
X138.6Y-53.9
X142.1Y-117.0
X142.1Y-123.0
X142.1Y-129.0
X142.1Y-135.0
X142.1Y-141.0
X144.6Y-117.0
X144.6Y-123.0
X144.6Y-129.0
X144.6Y-135.0
X144.6Y-141.0
X147.1Y-117.0
X147.1Y-123.0
X147.1Y-129.0
X147.1Y-135.0
X147.1Y-141.0
X149.6Y-117.0
X149.6Y-123.0
X149.6Y-129.0
X149.6Y-135.0
X149.6Y-141.0
X152.1Y-117.0
X152.1Y-123.0
X152.1Y-129.0
X152.1Y-135.0
X152.1Y-141.0
X154.6Y-117.0
X154.6Y-123.0
X154.6Y-129.0
X154.6Y-135.0
X154.6Y-141.0
X161.5Y-101.1
X161.5Y-103.6
X161.5Y-106.1
X161.5Y-108.6
X161.5Y-111.1
X161.5Y-113.6
X161.5Y-116.1
X167.7Y-101.1
X167.7Y-103.6
X167.7Y-106.1
X167.7Y-108.6
X167.7Y-111.1
X167.7Y-113.6
X167.7Y-116.1
X172.6Y-65.01
X172.6Y-67.51
X172.6Y-70.01
X172.6Y-72.51
X172.6Y-75.01
X173.74Y-89.3
X173.74Y-91.8
X173.74Y-94.3
X173.74Y-96.8
X173.74Y-99.3
X173.74Y-106.05
X173.74Y-108.55
X173.74Y-111.05
X173.74Y-113.55
X173.74Y-116.05
X179.6Y-65.0
X179.6Y-67.5
X179.6Y-70.0
X179.6Y-72.5
X179.6Y-75.0
X179.6Y-83.0
X179.6Y-85.5
X179.6Y-88.0
X179.6Y-90.5
X179.6Y-93.0
X179.6Y-101.5
X179.6Y-104.0
X179.6Y-106.5
X179.6Y-109.0
X179.6Y-111.5
X179.6Y-119.5
X179.6Y-122.0
X179.6Y-124.5
X179.6Y-127.0
X179.6Y-129.5
T4
X111.84Y-88.56
X111.84Y-91.1
X111.84Y-93.64
X111.84Y-96.18
X111.84Y-98.72
X111.84Y-101.26
X111.84Y-103.8
X114.38Y-88.56
X114.38Y-91.1
X114.38Y-93.64
X114.38Y-96.18
X114.38Y-98.72
X114.38Y-101.26
X114.38Y-103.8
X116.92Y-88.56
X116.92Y-91.1
X116.92Y-93.64
X116.92Y-96.18
X116.92Y-98.72
X116.92Y-101.26
X116.92Y-103.8
X144.96Y-53.86
X144.96Y-56.4
X144.96Y-58.94
X147.5Y-53.86
X147.5Y-56.4
X147.5Y-58.94
X150.04Y-53.86
X150.04Y-56.4
X150.04Y-58.94
X152.58Y-53.86
X152.58Y-56.4
X152.58Y-58.94
X160.1Y-53.38
X160.1Y-55.92
X160.1Y-58.46
X160.1Y-61.0
X160.1Y-63.54
X160.1Y-66.08
X160.1Y-68.62
X160.1Y-71.16
X160.1Y-73.7
X162.64Y-53.38
X162.64Y-55.92
X162.64Y-58.46
X162.64Y-61.0
X162.64Y-63.54
X162.64Y-66.08
X162.64Y-68.62
X162.64Y-71.16
X162.64Y-73.7
X162.95Y-83.31
X162.95Y-85.85
X165.06Y-126.25
X165.18Y-53.38
X165.18Y-55.92
X165.18Y-58.46
X165.18Y-61.0
X165.18Y-63.54
X165.18Y-66.08
X165.18Y-68.62
X165.18Y-71.16
X165.18Y-73.7
X167.6Y-126.25
X170.14Y-126.25
T5
X165.22Y-140.15
X170.22Y-140.15
T6
X97.1Y-54.0
X97.1Y-141.0
X180.1Y-54.0
X180.1Y-141.0
T2
X127.65Y-135.97G85X127.65Y-137.07
G05
X127.65Y-140.4G85X127.65Y-141.0
G05
X136.29Y-135.97G85X136.29Y-137.07
G05
X136.29Y-140.4G85X136.29Y-141.0
G05
M30
