%TF.GenerationSoftware,KiCad,Pcbnew,9.0.4-9.0.4-0~ubuntu24.04.1*%
%TF.CreationDate,2025-09-21T15:36:24+02:00*%
%TF.ProjectId,CarteMere,43617274-654d-4657-9265-2e6b69636164,rev?*%
%TF.SameCoordinates,Original*%
%TF.FileFunction,Legend,Bot*%
%TF.FilePolarity,Positive*%
%FSLAX46Y46*%
G04 Gerber Fmt 4.6, Leading zero omitted, Abs format (unit mm)*
G04 Created by KiCad (PCBNEW 9.0.4-9.0.4-0~ubuntu24.04.1) date 2025-09-21 15:36:24*
%MOMM*%
%LPD*%
G01*
G04 APERTURE LIST*
%ADD10C,0.120000*%
G04 APERTURE END LIST*
D10*
%TO.C,C26*%
X160010000Y-86992164D02*
X160010000Y-87207836D01*
X160730000Y-86992164D02*
X160730000Y-87207836D01*
%TO.C,C14*%
X131710000Y-83877836D02*
X131710000Y-83662164D01*
X132430000Y-83877836D02*
X132430000Y-83662164D01*
%TO.C,C16*%
X131742164Y-101940000D02*
X131957836Y-101940000D01*
X131742164Y-102660000D02*
X131957836Y-102660000D01*
%TO.C,C17*%
X131512164Y-89590000D02*
X131727836Y-89590000D01*
X131512164Y-90310000D02*
X131727836Y-90310000D01*
%TO.C,C29*%
X152277836Y-101640000D02*
X152062164Y-101640000D01*
X152277836Y-102360000D02*
X152062164Y-102360000D01*
%TO.C,C22*%
X143860000Y-103757836D02*
X143860000Y-103542164D01*
X144580000Y-103757836D02*
X144580000Y-103542164D01*
%TO.C,C23*%
X152307836Y-87040000D02*
X152092164Y-87040000D01*
X152307836Y-87760000D02*
X152092164Y-87760000D01*
%TO.C,C19*%
X139060000Y-103737836D02*
X139060000Y-103522164D01*
X139780000Y-103737836D02*
X139780000Y-103522164D01*
%TO.C,C31*%
X152307836Y-85840000D02*
X152092164Y-85840000D01*
X152307836Y-86560000D02*
X152092164Y-86560000D01*
%TO.C,C11*%
X150360000Y-103727836D02*
X150360000Y-103512164D01*
X151080000Y-103727836D02*
X151080000Y-103512164D01*
%TO.C,C25*%
X152277836Y-93140000D02*
X152062164Y-93140000D01*
X152277836Y-93860000D02*
X152062164Y-93860000D01*
%TO.C,C27*%
X152277836Y-97890000D02*
X152062164Y-97890000D01*
X152277836Y-98610000D02*
X152062164Y-98610000D01*
%TO.C,C20*%
X152092164Y-83440000D02*
X152307836Y-83440000D01*
X152092164Y-84160000D02*
X152307836Y-84160000D01*
%TO.C,C30*%
X152307836Y-84640000D02*
X152092164Y-84640000D01*
X152307836Y-85360000D02*
X152092164Y-85360000D01*
%TO.C,C5*%
X131532164Y-88440000D02*
X131747836Y-88440000D01*
X131532164Y-89160000D02*
X131747836Y-89160000D01*
%TO.C,C28*%
X140510000Y-103737836D02*
X140510000Y-103522164D01*
X141230000Y-103737836D02*
X141230000Y-103522164D01*
%TO.C,C10*%
X131742164Y-100690000D02*
X131957836Y-100690000D01*
X131742164Y-101410000D02*
X131957836Y-101410000D01*
%TO.C,C9*%
X131572164Y-95510000D02*
X131787836Y-95510000D01*
X131572164Y-96230000D02*
X131787836Y-96230000D01*
%TO.C,C33*%
X134110000Y-83662164D02*
X134110000Y-83877836D01*
X134830000Y-83662164D02*
X134830000Y-83877836D01*
%TO.C,C8*%
X131957836Y-103290000D02*
X131742164Y-103290000D01*
X131957836Y-104010000D02*
X131742164Y-104010000D01*
%TO.C,C21*%
X145360000Y-83642164D02*
X145360000Y-83857836D01*
X146080000Y-83642164D02*
X146080000Y-83857836D01*
%TO.C,C7*%
X140360000Y-83562164D02*
X140360000Y-83777836D01*
X141080000Y-83562164D02*
X141080000Y-83777836D01*
%TO.C,R20*%
X145740000Y-103436359D02*
X145740000Y-103743641D01*
X146500000Y-103436359D02*
X146500000Y-103743641D01*
%TO.C,R23*%
X142830000Y-78623641D02*
X142830000Y-78316359D01*
X143590000Y-78623641D02*
X143590000Y-78316359D01*
%TO.C,C32*%
X135360000Y-83662164D02*
X135360000Y-83877836D01*
X136080000Y-83662164D02*
X136080000Y-83877836D01*
%TO.C,C13*%
X132910000Y-83672164D02*
X132910000Y-83887836D01*
X133630000Y-83672164D02*
X133630000Y-83887836D01*
%TO.C,R21*%
X146890000Y-103436359D02*
X146890000Y-103743641D01*
X147650000Y-103436359D02*
X147650000Y-103743641D01*
%TO.C,R5*%
X152026359Y-96620000D02*
X152333641Y-96620000D01*
X152026359Y-97380000D02*
X152333641Y-97380000D01*
%TO.C,R11*%
X148040000Y-103436359D02*
X148040000Y-103743641D01*
X148800000Y-103436359D02*
X148800000Y-103743641D01*
%TO.C,C24*%
X158610000Y-86992164D02*
X158610000Y-87207836D01*
X159330000Y-86992164D02*
X159330000Y-87207836D01*
%TO.C,R3*%
X152026359Y-95370000D02*
X152333641Y-95370000D01*
X152026359Y-96130000D02*
X152333641Y-96130000D01*
%TD*%
M02*
