%TF.GenerationSoftware,KiCad,Pcbnew,9.0.4-9.0.4-0~ubuntu24.04.1*%
%TF.CreationDate,2025-09-21T15:36:24+02:00*%
%TF.ProjectId,CarteMere,43617274-654d-4657-9265-2e6b69636164,rev?*%
%TF.SameCoordinates,Original*%
%TF.FileFunction,Paste,Top*%
%TF.FilePolarity,Positive*%
%FSLAX46Y46*%
G04 Gerber Fmt 4.6, Leading zero omitted, Abs format (unit mm)*
G04 Created by KiCad (PCBNEW 9.0.4-9.0.4-0~ubuntu24.04.1) date 2025-09-21 15:36:24*
%MOMM*%
%LPD*%
G01*
G04 APERTURE LIST*
G04 Aperture macros list*
%AMRoundRect*
0 Rectangle with rounded corners*
0 $1 Rounding radius*
0 $2 $3 $4 $5 $6 $7 $8 $9 X,Y pos of 4 corners*
0 Add a 4 corners polygon primitive as box body*
4,1,4,$2,$3,$4,$5,$6,$7,$8,$9,$2,$3,0*
0 Add four circle primitives for the rounded corners*
1,1,$1+$1,$2,$3*
1,1,$1+$1,$4,$5*
1,1,$1+$1,$6,$7*
1,1,$1+$1,$8,$9*
0 Add four rect primitives between the rounded corners*
20,1,$1+$1,$2,$3,$4,$5,0*
20,1,$1+$1,$4,$5,$6,$7,0*
20,1,$1+$1,$6,$7,$8,$9,0*
20,1,$1+$1,$8,$9,$2,$3,0*%
G04 Aperture macros list end*
%ADD10RoundRect,0.135000X-0.135000X-0.185000X0.135000X-0.185000X0.135000X0.185000X-0.135000X0.185000X0*%
%ADD11RoundRect,0.135000X0.135000X0.185000X-0.135000X0.185000X-0.135000X-0.185000X0.135000X-0.185000X0*%
%ADD12RoundRect,0.250000X0.250000X0.475000X-0.250000X0.475000X-0.250000X-0.475000X0.250000X-0.475000X0*%
%ADD13RoundRect,0.075000X0.675000X0.075000X-0.675000X0.075000X-0.675000X-0.075000X0.675000X-0.075000X0*%
%ADD14RoundRect,0.075000X0.075000X0.675000X-0.075000X0.675000X-0.075000X-0.675000X0.075000X-0.675000X0*%
%ADD15RoundRect,0.225000X0.250000X-0.225000X0.250000X0.225000X-0.250000X0.225000X-0.250000X-0.225000X0*%
%ADD16RoundRect,0.210000X-0.490000X0.590000X-0.490000X-0.590000X0.490000X-0.590000X0.490000X0.590000X0*%
%ADD17RoundRect,0.135000X-0.185000X0.135000X-0.185000X-0.135000X0.185000X-0.135000X0.185000X0.135000X0*%
%ADD18RoundRect,0.135000X0.185000X-0.135000X0.185000X0.135000X-0.185000X0.135000X-0.185000X-0.135000X0*%
%ADD19RoundRect,0.093750X-0.093750X0.156250X-0.093750X-0.156250X0.093750X-0.156250X0.093750X0.156250X0*%
%ADD20RoundRect,0.075000X-0.075000X0.250000X-0.075000X-0.250000X0.075000X-0.250000X0.075000X0.250000X0*%
%ADD21RoundRect,0.270000X0.630000X-2.030000X0.630000X2.030000X-0.630000X2.030000X-0.630000X-2.030000X0*%
%ADD22R,0.900000X0.600000*%
%ADD23RoundRect,0.140000X0.170000X-0.140000X0.170000X0.140000X-0.170000X0.140000X-0.170000X-0.140000X0*%
%ADD24RoundRect,0.250000X-0.650000X1.000000X-0.650000X-1.000000X0.650000X-1.000000X0.650000X1.000000X0*%
%ADD25RoundRect,0.250000X0.325000X0.650000X-0.325000X0.650000X-0.325000X-0.650000X0.325000X-0.650000X0*%
%ADD26RoundRect,0.140000X0.140000X0.170000X-0.140000X0.170000X-0.140000X-0.170000X0.140000X-0.170000X0*%
%ADD27R,1.350000X0.600000*%
%ADD28RoundRect,0.225000X-0.250000X0.225000X-0.250000X-0.225000X0.250000X-0.225000X0.250000X0.225000X0*%
%ADD29R,0.740000X2.400000*%
%ADD30R,0.600000X1.450000*%
%ADD31R,0.300000X1.450000*%
%ADD32RoundRect,0.140000X-0.140000X-0.170000X0.140000X-0.170000X0.140000X0.170000X-0.140000X0.170000X0*%
G04 APERTURE END LIST*
D10*
%TO.C,R12*%
X157190000Y-85500000D03*
X158210000Y-85500000D03*
%TD*%
D11*
%TO.C,R9*%
X127090000Y-102500000D03*
X126070000Y-102500000D03*
%TD*%
D12*
%TO.C,C36*%
X168500000Y-134500000D03*
X166600000Y-134500000D03*
%TD*%
D11*
%TO.C,R15*%
X127040000Y-98500000D03*
X126020000Y-98500000D03*
%TD*%
D13*
%TO.C,U3*%
X154645000Y-104500000D03*
X154645000Y-104000000D03*
X154645000Y-103500000D03*
X154645000Y-103000000D03*
X154645000Y-102500000D03*
X154645000Y-102000000D03*
X154645000Y-101500000D03*
X154645000Y-101000000D03*
X154645000Y-100500000D03*
X154645000Y-100000000D03*
X154645000Y-99500000D03*
X154645000Y-99000000D03*
X154645000Y-98500000D03*
X154645000Y-98000000D03*
X154645000Y-97500000D03*
X154645000Y-97000000D03*
X154645000Y-96500000D03*
X154645000Y-96000000D03*
X154645000Y-95500000D03*
X154645000Y-95000000D03*
X154645000Y-94500000D03*
X154645000Y-94000000D03*
X154645000Y-93500000D03*
X154645000Y-93000000D03*
X154645000Y-92500000D03*
X154645000Y-92000000D03*
X154645000Y-91500000D03*
X154645000Y-91000000D03*
X154645000Y-90500000D03*
X154645000Y-90000000D03*
X154645000Y-89500000D03*
X154645000Y-89000000D03*
X154645000Y-88500000D03*
X154645000Y-88000000D03*
X154645000Y-87500000D03*
X154645000Y-87000000D03*
X154645000Y-86500000D03*
X154645000Y-86000000D03*
X154645000Y-85500000D03*
X154645000Y-85000000D03*
X154645000Y-84500000D03*
X154645000Y-84000000D03*
X154645000Y-83500000D03*
X154645000Y-83000000D03*
D14*
X152720000Y-81075000D03*
X152220000Y-81075000D03*
X151720000Y-81075000D03*
X151220000Y-81075000D03*
X150720000Y-81075000D03*
X150220000Y-81075000D03*
X149720000Y-81075000D03*
X149220000Y-81075000D03*
X148720000Y-81075000D03*
X148220000Y-81075000D03*
X147720000Y-81075000D03*
X147220000Y-81075000D03*
X146720000Y-81075000D03*
X146220000Y-81075000D03*
X145720000Y-81075000D03*
X145220000Y-81075000D03*
X144720000Y-81075000D03*
X144220000Y-81075000D03*
X143720000Y-81075000D03*
X143220000Y-81075000D03*
X142720000Y-81075000D03*
X142220000Y-81075000D03*
X141720000Y-81075000D03*
X141220000Y-81075000D03*
X140720000Y-81075000D03*
X140220000Y-81075000D03*
X139720000Y-81075000D03*
X139220000Y-81075000D03*
X138720000Y-81075000D03*
X138220000Y-81075000D03*
X137720000Y-81075000D03*
X137220000Y-81075000D03*
X136720000Y-81075000D03*
X136220000Y-81075000D03*
X135720000Y-81075000D03*
X135220000Y-81075000D03*
X134720000Y-81075000D03*
X134220000Y-81075000D03*
X133720000Y-81075000D03*
X133220000Y-81075000D03*
X132720000Y-81075000D03*
X132220000Y-81075000D03*
X131720000Y-81075000D03*
X131220000Y-81075000D03*
D13*
X129295000Y-83000000D03*
X129295000Y-83500000D03*
X129295000Y-84000000D03*
X129295000Y-84500000D03*
X129295000Y-85000000D03*
X129295000Y-85500000D03*
X129295000Y-86000000D03*
X129295000Y-86500000D03*
X129295000Y-87000000D03*
X129295000Y-87500000D03*
X129295000Y-88000000D03*
X129295000Y-88500000D03*
X129295000Y-89000000D03*
X129295000Y-89500000D03*
X129295000Y-90000000D03*
X129295000Y-90500000D03*
X129295000Y-91000000D03*
X129295000Y-91500000D03*
X129295000Y-92000000D03*
X129295000Y-92500000D03*
X129295000Y-93000000D03*
X129295000Y-93500000D03*
X129295000Y-94000000D03*
X129295000Y-94500000D03*
X129295000Y-95000000D03*
X129295000Y-95500000D03*
X129295000Y-96000000D03*
X129295000Y-96500000D03*
X129295000Y-97000000D03*
X129295000Y-97500000D03*
X129295000Y-98000000D03*
X129295000Y-98500000D03*
X129295000Y-99000000D03*
X129295000Y-99500000D03*
X129295000Y-100000000D03*
X129295000Y-100500000D03*
X129295000Y-101000000D03*
X129295000Y-101500000D03*
X129295000Y-102000000D03*
X129295000Y-102500000D03*
X129295000Y-103000000D03*
X129295000Y-103500000D03*
X129295000Y-104000000D03*
X129295000Y-104500000D03*
D14*
X131220000Y-106425000D03*
X131720000Y-106425000D03*
X132220000Y-106425000D03*
X132720000Y-106425000D03*
X133220000Y-106425000D03*
X133720000Y-106425000D03*
X134220000Y-106425000D03*
X134720000Y-106425000D03*
X135220000Y-106425000D03*
X135720000Y-106425000D03*
X136220000Y-106425000D03*
X136720000Y-106425000D03*
X137220000Y-106425000D03*
X137720000Y-106425000D03*
X138220000Y-106425000D03*
X138720000Y-106425000D03*
X139220000Y-106425000D03*
X139720000Y-106425000D03*
X140220000Y-106425000D03*
X140720000Y-106425000D03*
X141220000Y-106425000D03*
X141720000Y-106425000D03*
X142220000Y-106425000D03*
X142720000Y-106425000D03*
X143220000Y-106425000D03*
X143720000Y-106425000D03*
X144220000Y-106425000D03*
X144720000Y-106425000D03*
X145220000Y-106425000D03*
X145720000Y-106425000D03*
X146220000Y-106425000D03*
X146720000Y-106425000D03*
X147220000Y-106425000D03*
X147720000Y-106425000D03*
X148220000Y-106425000D03*
X148720000Y-106425000D03*
X149220000Y-106425000D03*
X149720000Y-106425000D03*
X150220000Y-106425000D03*
X150720000Y-106425000D03*
X151220000Y-106425000D03*
X151720000Y-106425000D03*
X152220000Y-106425000D03*
X152720000Y-106425000D03*
%TD*%
D15*
%TO.C,C1*%
X128650000Y-121525000D03*
X128650000Y-119975000D03*
%TD*%
%TO.C,C4*%
X165010000Y-122775000D03*
X165010000Y-121225000D03*
%TD*%
D16*
%TO.C,U4*%
X166110000Y-88900000D03*
X166110000Y-94700000D03*
X163540000Y-94700000D03*
X163570000Y-88900000D03*
%TD*%
D11*
%TO.C,R8*%
X158090000Y-92400000D03*
X157070000Y-92400000D03*
%TD*%
%TO.C,R17*%
X126510000Y-85500000D03*
X125490000Y-85500000D03*
%TD*%
D10*
%TO.C,R14*%
X157050000Y-95710000D03*
X158070000Y-95710000D03*
%TD*%
D17*
%TO.C,R6*%
X130200000Y-79190000D03*
X130200000Y-80210000D03*
%TD*%
D18*
%TO.C,R1*%
X133750000Y-132950000D03*
X133750000Y-131930000D03*
%TD*%
D15*
%TO.C,C34*%
X160880000Y-90800000D03*
X160880000Y-89250000D03*
%TD*%
D19*
%TO.C,U2*%
X132875000Y-127150000D03*
D20*
X132337500Y-127075000D03*
D19*
X131800000Y-127150000D03*
X131800000Y-128850000D03*
D20*
X132337500Y-128925000D03*
D19*
X132875000Y-128850000D03*
%TD*%
D21*
%TO.C,L1*%
X140520000Y-69600000D03*
X131520000Y-69600000D03*
%TD*%
D22*
%TO.C,PS1*%
X130750000Y-119875000D03*
X130750000Y-120825000D03*
X130750000Y-121775000D03*
X133550000Y-121775000D03*
X133550000Y-119875000D03*
%TD*%
D23*
%TO.C,C18*%
X142970000Y-71710000D03*
X142970000Y-70750000D03*
%TD*%
D24*
%TO.C,D2*%
X135600000Y-125500000D03*
X135600000Y-129500000D03*
%TD*%
D25*
%TO.C,C2*%
X170685000Y-121500000D03*
X167735000Y-121500000D03*
%TD*%
D17*
%TO.C,R22*%
X162890000Y-79560000D03*
X162890000Y-80580000D03*
%TD*%
D26*
%TO.C,C12*%
X135300000Y-62000000D03*
X134340000Y-62000000D03*
%TD*%
D10*
%TO.C,R13*%
X157190000Y-84400000D03*
X158210000Y-84400000D03*
%TD*%
D27*
%TO.C,SW1*%
X104700000Y-143500000D03*
X109750000Y-143500000D03*
X109750000Y-141800000D03*
X104700000Y-141800000D03*
%TD*%
D28*
%TO.C,C3*%
X135600000Y-119950000D03*
X135600000Y-121500000D03*
%TD*%
D11*
%TO.C,R18*%
X126520000Y-86650000D03*
X125500000Y-86650000D03*
%TD*%
D29*
%TO.C,J50*%
X114330000Y-141500000D03*
X114330000Y-137600000D03*
X115600000Y-141500000D03*
X115600000Y-137600000D03*
X116870000Y-141500000D03*
X116870000Y-137600000D03*
X118140000Y-141500000D03*
X118140000Y-137600000D03*
X119410000Y-141500000D03*
X119410000Y-137600000D03*
X120680000Y-141500000D03*
X120680000Y-137600000D03*
X121950000Y-141500000D03*
X121950000Y-137600000D03*
%TD*%
D17*
%TO.C,R19*%
X156620000Y-104090000D03*
X156620000Y-105110000D03*
%TD*%
D30*
%TO.C,J48*%
X128720000Y-135605000D03*
X129520000Y-135605000D03*
D31*
X130720000Y-135605000D03*
X131720000Y-135605000D03*
X132220000Y-135605000D03*
X133220000Y-135605000D03*
D30*
X134420000Y-135605000D03*
X135220000Y-135605000D03*
X135220000Y-135605000D03*
X134420000Y-135605000D03*
D31*
X133720000Y-135605000D03*
X132720000Y-135605000D03*
X131220000Y-135605000D03*
X130220000Y-135605000D03*
D30*
X129520000Y-135605000D03*
X128720000Y-135605000D03*
%TD*%
D15*
%TO.C,C35*%
X160880000Y-94175000D03*
X160880000Y-92625000D03*
%TD*%
D24*
%TO.C,D1*%
X129100000Y-125500000D03*
X129100000Y-129500000D03*
%TD*%
D11*
%TO.C,R16*%
X126510000Y-84400000D03*
X125490000Y-84400000D03*
%TD*%
D32*
%TO.C,C15*%
X137240000Y-61950000D03*
X138200000Y-61950000D03*
%TD*%
D10*
%TO.C,R4*%
X127290000Y-82000000D03*
X128310000Y-82000000D03*
%TD*%
D32*
%TO.C,C6*%
X108420000Y-139520000D03*
X109380000Y-139520000D03*
%TD*%
D18*
%TO.C,R2*%
X130700000Y-132850000D03*
X130700000Y-131830000D03*
%TD*%
D17*
%TO.C,R10*%
X143220000Y-108690000D03*
X143220000Y-109710000D03*
%TD*%
D11*
%TO.C,R7*%
X158070000Y-96840000D03*
X157050000Y-96840000D03*
%TD*%
M02*
