%TF.GenerationSoftware,KiCad,Pcbnew,9.0.4-9.0.4-0~ubuntu24.04.1*%
%TF.CreationDate,2025-09-24T00:09:46+02:00*%
%TF.ProjectId,CarteMere,43617274-654d-4657-9265-2e6b69636164,rev?*%
%TF.SameCoordinates,Original*%
%TF.FileFunction,Drillmap*%
%TF.FilePolarity,Positive*%
%FSLAX45Y45*%
G04 Gerber Fmt 4.5, Leading zero omitted, Abs format (unit mm)*
G04 Created by KiCad (PCBNEW 9.0.4-9.0.4-0~ubuntu24.04.1) date 2025-09-24 00:09:46*
%MOMM*%
%LPD*%
G01*
G04 APERTURE LIST*
%ADD10C,0.050000*%
%ADD11C,0.200000*%
%ADD12C,0.100000*%
G04 APERTURE END LIST*
D10*
X18010000Y-5000000D02*
G75*
G02*
X18410000Y-5400000I0J-400000D01*
G01*
X9710000Y-14500000D02*
G75*
G02*
X9310000Y-14100000I0J400000D01*
G01*
X9710000Y-14500000D02*
X18010000Y-14500000D01*
X9310000Y-5400000D02*
G75*
G02*
X9710000Y-5000000I400000J0D01*
G01*
X18410000Y-14100000D02*
X18410000Y-5400000D01*
X18410000Y-14100000D02*
G75*
G02*
X18010000Y-14500000I-400000J0D01*
G01*
X9310000Y-5400000D02*
X9310000Y-14100000D01*
X18010000Y-5000000D02*
X9710000Y-5000000D01*
D11*
D12*
X12875500Y-13672500D02*
X12940500Y-13737500D01*
X12940500Y-13672500D02*
X12875500Y-13737500D01*
X13453500Y-13672500D02*
X13518500Y-13737500D01*
X13518500Y-13672500D02*
X13453500Y-13737500D01*
D11*
X9568277Y-14813984D02*
X9568277Y-14613984D01*
X9568277Y-14613984D02*
X9615896Y-14613984D01*
X9615896Y-14613984D02*
X9644467Y-14623508D01*
X9644467Y-14623508D02*
X9663515Y-14642555D01*
X9663515Y-14642555D02*
X9673039Y-14661603D01*
X9673039Y-14661603D02*
X9682563Y-14699698D01*
X9682563Y-14699698D02*
X9682563Y-14728269D01*
X9682563Y-14728269D02*
X9673039Y-14766365D01*
X9673039Y-14766365D02*
X9663515Y-14785412D01*
X9663515Y-14785412D02*
X9644467Y-14804460D01*
X9644467Y-14804460D02*
X9615896Y-14813984D01*
X9615896Y-14813984D02*
X9568277Y-14813984D01*
X9768277Y-14813984D02*
X9768277Y-14680650D01*
X9768277Y-14718746D02*
X9777801Y-14699698D01*
X9777801Y-14699698D02*
X9787324Y-14690174D01*
X9787324Y-14690174D02*
X9806372Y-14680650D01*
X9806372Y-14680650D02*
X9825420Y-14680650D01*
X9892086Y-14813984D02*
X9892086Y-14680650D01*
X9892086Y-14613984D02*
X9882563Y-14623508D01*
X9882563Y-14623508D02*
X9892086Y-14633031D01*
X9892086Y-14633031D02*
X9901610Y-14623508D01*
X9901610Y-14623508D02*
X9892086Y-14613984D01*
X9892086Y-14613984D02*
X9892086Y-14633031D01*
X10015896Y-14813984D02*
X9996848Y-14804460D01*
X9996848Y-14804460D02*
X9987324Y-14785412D01*
X9987324Y-14785412D02*
X9987324Y-14613984D01*
X10120658Y-14813984D02*
X10101610Y-14804460D01*
X10101610Y-14804460D02*
X10092086Y-14785412D01*
X10092086Y-14785412D02*
X10092086Y-14613984D01*
X10349229Y-14813984D02*
X10349229Y-14613984D01*
X10349229Y-14613984D02*
X10415896Y-14756841D01*
X10415896Y-14756841D02*
X10482563Y-14613984D01*
X10482563Y-14613984D02*
X10482563Y-14813984D01*
X10663515Y-14813984D02*
X10663515Y-14709222D01*
X10663515Y-14709222D02*
X10653991Y-14690174D01*
X10653991Y-14690174D02*
X10634944Y-14680650D01*
X10634944Y-14680650D02*
X10596848Y-14680650D01*
X10596848Y-14680650D02*
X10577801Y-14690174D01*
X10663515Y-14804460D02*
X10644467Y-14813984D01*
X10644467Y-14813984D02*
X10596848Y-14813984D01*
X10596848Y-14813984D02*
X10577801Y-14804460D01*
X10577801Y-14804460D02*
X10568277Y-14785412D01*
X10568277Y-14785412D02*
X10568277Y-14766365D01*
X10568277Y-14766365D02*
X10577801Y-14747317D01*
X10577801Y-14747317D02*
X10596848Y-14737793D01*
X10596848Y-14737793D02*
X10644467Y-14737793D01*
X10644467Y-14737793D02*
X10663515Y-14728269D01*
X10758753Y-14680650D02*
X10758753Y-14880650D01*
X10758753Y-14690174D02*
X10777801Y-14680650D01*
X10777801Y-14680650D02*
X10815896Y-14680650D01*
X10815896Y-14680650D02*
X10834944Y-14690174D01*
X10834944Y-14690174D02*
X10844467Y-14699698D01*
X10844467Y-14699698D02*
X10853991Y-14718746D01*
X10853991Y-14718746D02*
X10853991Y-14775888D01*
X10853991Y-14775888D02*
X10844467Y-14794936D01*
X10844467Y-14794936D02*
X10834944Y-14804460D01*
X10834944Y-14804460D02*
X10815896Y-14813984D01*
X10815896Y-14813984D02*
X10777801Y-14813984D01*
X10777801Y-14813984D02*
X10758753Y-14804460D01*
X10939705Y-14794936D02*
X10949229Y-14804460D01*
X10949229Y-14804460D02*
X10939705Y-14813984D01*
X10939705Y-14813984D02*
X10930182Y-14804460D01*
X10930182Y-14804460D02*
X10939705Y-14794936D01*
X10939705Y-14794936D02*
X10939705Y-14813984D01*
X10939705Y-14690174D02*
X10949229Y-14699698D01*
X10949229Y-14699698D02*
X10939705Y-14709222D01*
X10939705Y-14709222D02*
X10930182Y-14699698D01*
X10930182Y-14699698D02*
X10939705Y-14690174D01*
X10939705Y-14690174D02*
X10939705Y-14709222D01*
D12*
X9242500Y-15110000D02*
X9307500Y-15175000D01*
X9307500Y-15110000D02*
X9242500Y-15175000D01*
D11*
X9606372Y-15033984D02*
X9625420Y-15033984D01*
X9625420Y-15033984D02*
X9644467Y-15043508D01*
X9644467Y-15043508D02*
X9653991Y-15053031D01*
X9653991Y-15053031D02*
X9663515Y-15072079D01*
X9663515Y-15072079D02*
X9673039Y-15110174D01*
X9673039Y-15110174D02*
X9673039Y-15157793D01*
X9673039Y-15157793D02*
X9663515Y-15195888D01*
X9663515Y-15195888D02*
X9653991Y-15214936D01*
X9653991Y-15214936D02*
X9644467Y-15224460D01*
X9644467Y-15224460D02*
X9625420Y-15233984D01*
X9625420Y-15233984D02*
X9606372Y-15233984D01*
X9606372Y-15233984D02*
X9587324Y-15224460D01*
X9587324Y-15224460D02*
X9577801Y-15214936D01*
X9577801Y-15214936D02*
X9568277Y-15195888D01*
X9568277Y-15195888D02*
X9558753Y-15157793D01*
X9558753Y-15157793D02*
X9558753Y-15110174D01*
X9558753Y-15110174D02*
X9568277Y-15072079D01*
X9568277Y-15072079D02*
X9577801Y-15053031D01*
X9577801Y-15053031D02*
X9587324Y-15043508D01*
X9587324Y-15043508D02*
X9606372Y-15033984D01*
X9758753Y-15214936D02*
X9768277Y-15224460D01*
X9768277Y-15224460D02*
X9758753Y-15233984D01*
X9758753Y-15233984D02*
X9749229Y-15224460D01*
X9749229Y-15224460D02*
X9758753Y-15214936D01*
X9758753Y-15214936D02*
X9758753Y-15233984D01*
X9939705Y-15033984D02*
X9901610Y-15033984D01*
X9901610Y-15033984D02*
X9882563Y-15043508D01*
X9882563Y-15043508D02*
X9873039Y-15053031D01*
X9873039Y-15053031D02*
X9853991Y-15081603D01*
X9853991Y-15081603D02*
X9844467Y-15119698D01*
X9844467Y-15119698D02*
X9844467Y-15195888D01*
X9844467Y-15195888D02*
X9853991Y-15214936D01*
X9853991Y-15214936D02*
X9863515Y-15224460D01*
X9863515Y-15224460D02*
X9882563Y-15233984D01*
X9882563Y-15233984D02*
X9920658Y-15233984D01*
X9920658Y-15233984D02*
X9939705Y-15224460D01*
X9939705Y-15224460D02*
X9949229Y-15214936D01*
X9949229Y-15214936D02*
X9958753Y-15195888D01*
X9958753Y-15195888D02*
X9958753Y-15148269D01*
X9958753Y-15148269D02*
X9949229Y-15129222D01*
X9949229Y-15129222D02*
X9939705Y-15119698D01*
X9939705Y-15119698D02*
X9920658Y-15110174D01*
X9920658Y-15110174D02*
X9882563Y-15110174D01*
X9882563Y-15110174D02*
X9863515Y-15119698D01*
X9863515Y-15119698D02*
X9853991Y-15129222D01*
X9853991Y-15129222D02*
X9844467Y-15148269D01*
X10139705Y-15033984D02*
X10044467Y-15033984D01*
X10044467Y-15033984D02*
X10034944Y-15129222D01*
X10034944Y-15129222D02*
X10044467Y-15119698D01*
X10044467Y-15119698D02*
X10063515Y-15110174D01*
X10063515Y-15110174D02*
X10111134Y-15110174D01*
X10111134Y-15110174D02*
X10130182Y-15119698D01*
X10130182Y-15119698D02*
X10139705Y-15129222D01*
X10139705Y-15129222D02*
X10149229Y-15148269D01*
X10149229Y-15148269D02*
X10149229Y-15195888D01*
X10149229Y-15195888D02*
X10139705Y-15214936D01*
X10139705Y-15214936D02*
X10130182Y-15224460D01*
X10130182Y-15224460D02*
X10111134Y-15233984D01*
X10111134Y-15233984D02*
X10063515Y-15233984D01*
X10063515Y-15233984D02*
X10044467Y-15224460D01*
X10044467Y-15224460D02*
X10034944Y-15214936D01*
X10273039Y-15033984D02*
X10292086Y-15033984D01*
X10292086Y-15033984D02*
X10311134Y-15043508D01*
X10311134Y-15043508D02*
X10320658Y-15053031D01*
X10320658Y-15053031D02*
X10330182Y-15072079D01*
X10330182Y-15072079D02*
X10339705Y-15110174D01*
X10339705Y-15110174D02*
X10339705Y-15157793D01*
X10339705Y-15157793D02*
X10330182Y-15195888D01*
X10330182Y-15195888D02*
X10320658Y-15214936D01*
X10320658Y-15214936D02*
X10311134Y-15224460D01*
X10311134Y-15224460D02*
X10292086Y-15233984D01*
X10292086Y-15233984D02*
X10273039Y-15233984D01*
X10273039Y-15233984D02*
X10253991Y-15224460D01*
X10253991Y-15224460D02*
X10244467Y-15214936D01*
X10244467Y-15214936D02*
X10234944Y-15195888D01*
X10234944Y-15195888D02*
X10225420Y-15157793D01*
X10225420Y-15157793D02*
X10225420Y-15110174D01*
X10225420Y-15110174D02*
X10234944Y-15072079D01*
X10234944Y-15072079D02*
X10244467Y-15053031D01*
X10244467Y-15053031D02*
X10253991Y-15043508D01*
X10253991Y-15043508D02*
X10273039Y-15033984D01*
X10425420Y-15233984D02*
X10425420Y-15100650D01*
X10425420Y-15119698D02*
X10434944Y-15110174D01*
X10434944Y-15110174D02*
X10453991Y-15100650D01*
X10453991Y-15100650D02*
X10482563Y-15100650D01*
X10482563Y-15100650D02*
X10501610Y-15110174D01*
X10501610Y-15110174D02*
X10511134Y-15129222D01*
X10511134Y-15129222D02*
X10511134Y-15233984D01*
X10511134Y-15129222D02*
X10520658Y-15110174D01*
X10520658Y-15110174D02*
X10539705Y-15100650D01*
X10539705Y-15100650D02*
X10568277Y-15100650D01*
X10568277Y-15100650D02*
X10587325Y-15110174D01*
X10587325Y-15110174D02*
X10596848Y-15129222D01*
X10596848Y-15129222D02*
X10596848Y-15233984D01*
X10692086Y-15233984D02*
X10692086Y-15100650D01*
X10692086Y-15119698D02*
X10701610Y-15110174D01*
X10701610Y-15110174D02*
X10720658Y-15100650D01*
X10720658Y-15100650D02*
X10749229Y-15100650D01*
X10749229Y-15100650D02*
X10768277Y-15110174D01*
X10768277Y-15110174D02*
X10777801Y-15129222D01*
X10777801Y-15129222D02*
X10777801Y-15233984D01*
X10777801Y-15129222D02*
X10787325Y-15110174D01*
X10787325Y-15110174D02*
X10806372Y-15100650D01*
X10806372Y-15100650D02*
X10834944Y-15100650D01*
X10834944Y-15100650D02*
X10853991Y-15110174D01*
X10853991Y-15110174D02*
X10863515Y-15129222D01*
X10863515Y-15129222D02*
X10863515Y-15233984D01*
X11253991Y-15024460D02*
X11082563Y-15281603D01*
X11511134Y-15033984D02*
X11530182Y-15033984D01*
X11530182Y-15033984D02*
X11549229Y-15043508D01*
X11549229Y-15043508D02*
X11558753Y-15053031D01*
X11558753Y-15053031D02*
X11568277Y-15072079D01*
X11568277Y-15072079D02*
X11577801Y-15110174D01*
X11577801Y-15110174D02*
X11577801Y-15157793D01*
X11577801Y-15157793D02*
X11568277Y-15195888D01*
X11568277Y-15195888D02*
X11558753Y-15214936D01*
X11558753Y-15214936D02*
X11549229Y-15224460D01*
X11549229Y-15224460D02*
X11530182Y-15233984D01*
X11530182Y-15233984D02*
X11511134Y-15233984D01*
X11511134Y-15233984D02*
X11492086Y-15224460D01*
X11492086Y-15224460D02*
X11482563Y-15214936D01*
X11482563Y-15214936D02*
X11473039Y-15195888D01*
X11473039Y-15195888D02*
X11463515Y-15157793D01*
X11463515Y-15157793D02*
X11463515Y-15110174D01*
X11463515Y-15110174D02*
X11473039Y-15072079D01*
X11473039Y-15072079D02*
X11482563Y-15053031D01*
X11482563Y-15053031D02*
X11492086Y-15043508D01*
X11492086Y-15043508D02*
X11511134Y-15033984D01*
X11663515Y-15214936D02*
X11673039Y-15224460D01*
X11673039Y-15224460D02*
X11663515Y-15233984D01*
X11663515Y-15233984D02*
X11653991Y-15224460D01*
X11653991Y-15224460D02*
X11663515Y-15214936D01*
X11663515Y-15214936D02*
X11663515Y-15233984D01*
X11796848Y-15033984D02*
X11815896Y-15033984D01*
X11815896Y-15033984D02*
X11834944Y-15043508D01*
X11834944Y-15043508D02*
X11844467Y-15053031D01*
X11844467Y-15053031D02*
X11853991Y-15072079D01*
X11853991Y-15072079D02*
X11863515Y-15110174D01*
X11863515Y-15110174D02*
X11863515Y-15157793D01*
X11863515Y-15157793D02*
X11853991Y-15195888D01*
X11853991Y-15195888D02*
X11844467Y-15214936D01*
X11844467Y-15214936D02*
X11834944Y-15224460D01*
X11834944Y-15224460D02*
X11815896Y-15233984D01*
X11815896Y-15233984D02*
X11796848Y-15233984D01*
X11796848Y-15233984D02*
X11777801Y-15224460D01*
X11777801Y-15224460D02*
X11768277Y-15214936D01*
X11768277Y-15214936D02*
X11758753Y-15195888D01*
X11758753Y-15195888D02*
X11749229Y-15157793D01*
X11749229Y-15157793D02*
X11749229Y-15110174D01*
X11749229Y-15110174D02*
X11758753Y-15072079D01*
X11758753Y-15072079D02*
X11768277Y-15053031D01*
X11768277Y-15053031D02*
X11777801Y-15043508D01*
X11777801Y-15043508D02*
X11796848Y-15033984D01*
X11939706Y-15053031D02*
X11949229Y-15043508D01*
X11949229Y-15043508D02*
X11968277Y-15033984D01*
X11968277Y-15033984D02*
X12015896Y-15033984D01*
X12015896Y-15033984D02*
X12034944Y-15043508D01*
X12034944Y-15043508D02*
X12044467Y-15053031D01*
X12044467Y-15053031D02*
X12053991Y-15072079D01*
X12053991Y-15072079D02*
X12053991Y-15091127D01*
X12053991Y-15091127D02*
X12044467Y-15119698D01*
X12044467Y-15119698D02*
X11930182Y-15233984D01*
X11930182Y-15233984D02*
X12053991Y-15233984D01*
X12234944Y-15033984D02*
X12139706Y-15033984D01*
X12139706Y-15033984D02*
X12130182Y-15129222D01*
X12130182Y-15129222D02*
X12139706Y-15119698D01*
X12139706Y-15119698D02*
X12158753Y-15110174D01*
X12158753Y-15110174D02*
X12206372Y-15110174D01*
X12206372Y-15110174D02*
X12225420Y-15119698D01*
X12225420Y-15119698D02*
X12234944Y-15129222D01*
X12234944Y-15129222D02*
X12244467Y-15148269D01*
X12244467Y-15148269D02*
X12244467Y-15195888D01*
X12244467Y-15195888D02*
X12234944Y-15214936D01*
X12234944Y-15214936D02*
X12225420Y-15224460D01*
X12225420Y-15224460D02*
X12206372Y-15233984D01*
X12206372Y-15233984D02*
X12158753Y-15233984D01*
X12158753Y-15233984D02*
X12139706Y-15224460D01*
X12139706Y-15224460D02*
X12130182Y-15214936D01*
X12415896Y-15033984D02*
X12377801Y-15033984D01*
X12377801Y-15033984D02*
X12358753Y-15043508D01*
X12358753Y-15043508D02*
X12349229Y-15053031D01*
X12349229Y-15053031D02*
X12330182Y-15081603D01*
X12330182Y-15081603D02*
X12320658Y-15119698D01*
X12320658Y-15119698D02*
X12320658Y-15195888D01*
X12320658Y-15195888D02*
X12330182Y-15214936D01*
X12330182Y-15214936D02*
X12339706Y-15224460D01*
X12339706Y-15224460D02*
X12358753Y-15233984D01*
X12358753Y-15233984D02*
X12396848Y-15233984D01*
X12396848Y-15233984D02*
X12415896Y-15224460D01*
X12415896Y-15224460D02*
X12425420Y-15214936D01*
X12425420Y-15214936D02*
X12434944Y-15195888D01*
X12434944Y-15195888D02*
X12434944Y-15148269D01*
X12434944Y-15148269D02*
X12425420Y-15129222D01*
X12425420Y-15129222D02*
X12415896Y-15119698D01*
X12415896Y-15119698D02*
X12396848Y-15110174D01*
X12396848Y-15110174D02*
X12358753Y-15110174D01*
X12358753Y-15110174D02*
X12339706Y-15119698D01*
X12339706Y-15119698D02*
X12330182Y-15129222D01*
X12330182Y-15129222D02*
X12320658Y-15148269D01*
X12511134Y-15033984D02*
X12511134Y-15072079D01*
X12587325Y-15033984D02*
X12587325Y-15072079D01*
X12882563Y-15310174D02*
X12873039Y-15300650D01*
X12873039Y-15300650D02*
X12853991Y-15272079D01*
X12853991Y-15272079D02*
X12844468Y-15253031D01*
X12844468Y-15253031D02*
X12834944Y-15224460D01*
X12834944Y-15224460D02*
X12825420Y-15176841D01*
X12825420Y-15176841D02*
X12825420Y-15138746D01*
X12825420Y-15138746D02*
X12834944Y-15091127D01*
X12834944Y-15091127D02*
X12844468Y-15062555D01*
X12844468Y-15062555D02*
X12853991Y-15043508D01*
X12853991Y-15043508D02*
X12873039Y-15014936D01*
X12873039Y-15014936D02*
X12882563Y-15005412D01*
X12949229Y-15053031D02*
X12958753Y-15043508D01*
X12958753Y-15043508D02*
X12977801Y-15033984D01*
X12977801Y-15033984D02*
X13025420Y-15033984D01*
X13025420Y-15033984D02*
X13044468Y-15043508D01*
X13044468Y-15043508D02*
X13053991Y-15053031D01*
X13053991Y-15053031D02*
X13063515Y-15072079D01*
X13063515Y-15072079D02*
X13063515Y-15091127D01*
X13063515Y-15091127D02*
X13053991Y-15119698D01*
X13053991Y-15119698D02*
X12939706Y-15233984D01*
X12939706Y-15233984D02*
X13063515Y-15233984D01*
X13301610Y-15233984D02*
X13301610Y-15033984D01*
X13387325Y-15233984D02*
X13387325Y-15129222D01*
X13387325Y-15129222D02*
X13377801Y-15110174D01*
X13377801Y-15110174D02*
X13358753Y-15100650D01*
X13358753Y-15100650D02*
X13330182Y-15100650D01*
X13330182Y-15100650D02*
X13311134Y-15110174D01*
X13311134Y-15110174D02*
X13301610Y-15119698D01*
X13511134Y-15233984D02*
X13492087Y-15224460D01*
X13492087Y-15224460D02*
X13482563Y-15214936D01*
X13482563Y-15214936D02*
X13473039Y-15195888D01*
X13473039Y-15195888D02*
X13473039Y-15138746D01*
X13473039Y-15138746D02*
X13482563Y-15119698D01*
X13482563Y-15119698D02*
X13492087Y-15110174D01*
X13492087Y-15110174D02*
X13511134Y-15100650D01*
X13511134Y-15100650D02*
X13539706Y-15100650D01*
X13539706Y-15100650D02*
X13558753Y-15110174D01*
X13558753Y-15110174D02*
X13568277Y-15119698D01*
X13568277Y-15119698D02*
X13577801Y-15138746D01*
X13577801Y-15138746D02*
X13577801Y-15195888D01*
X13577801Y-15195888D02*
X13568277Y-15214936D01*
X13568277Y-15214936D02*
X13558753Y-15224460D01*
X13558753Y-15224460D02*
X13539706Y-15233984D01*
X13539706Y-15233984D02*
X13511134Y-15233984D01*
X13692087Y-15233984D02*
X13673039Y-15224460D01*
X13673039Y-15224460D02*
X13663515Y-15205412D01*
X13663515Y-15205412D02*
X13663515Y-15033984D01*
X13844468Y-15224460D02*
X13825420Y-15233984D01*
X13825420Y-15233984D02*
X13787325Y-15233984D01*
X13787325Y-15233984D02*
X13768277Y-15224460D01*
X13768277Y-15224460D02*
X13758753Y-15205412D01*
X13758753Y-15205412D02*
X13758753Y-15129222D01*
X13758753Y-15129222D02*
X13768277Y-15110174D01*
X13768277Y-15110174D02*
X13787325Y-15100650D01*
X13787325Y-15100650D02*
X13825420Y-15100650D01*
X13825420Y-15100650D02*
X13844468Y-15110174D01*
X13844468Y-15110174D02*
X13853991Y-15129222D01*
X13853991Y-15129222D02*
X13853991Y-15148269D01*
X13853991Y-15148269D02*
X13758753Y-15167317D01*
X13930182Y-15224460D02*
X13949230Y-15233984D01*
X13949230Y-15233984D02*
X13987325Y-15233984D01*
X13987325Y-15233984D02*
X14006372Y-15224460D01*
X14006372Y-15224460D02*
X14015896Y-15205412D01*
X14015896Y-15205412D02*
X14015896Y-15195888D01*
X14015896Y-15195888D02*
X14006372Y-15176841D01*
X14006372Y-15176841D02*
X13987325Y-15167317D01*
X13987325Y-15167317D02*
X13958753Y-15167317D01*
X13958753Y-15167317D02*
X13939706Y-15157793D01*
X13939706Y-15157793D02*
X13930182Y-15138746D01*
X13930182Y-15138746D02*
X13930182Y-15129222D01*
X13930182Y-15129222D02*
X13939706Y-15110174D01*
X13939706Y-15110174D02*
X13958753Y-15100650D01*
X13958753Y-15100650D02*
X13987325Y-15100650D01*
X13987325Y-15100650D02*
X14006372Y-15110174D01*
X14082563Y-15310174D02*
X14092087Y-15300650D01*
X14092087Y-15300650D02*
X14111134Y-15272079D01*
X14111134Y-15272079D02*
X14120658Y-15253031D01*
X14120658Y-15253031D02*
X14130182Y-15224460D01*
X14130182Y-15224460D02*
X14139706Y-15176841D01*
X14139706Y-15176841D02*
X14139706Y-15138746D01*
X14139706Y-15138746D02*
X14130182Y-15091127D01*
X14130182Y-15091127D02*
X14120658Y-15062555D01*
X14120658Y-15062555D02*
X14111134Y-15043508D01*
X14111134Y-15043508D02*
X14092087Y-15014936D01*
X14092087Y-15014936D02*
X14082563Y-15005412D01*
X14444468Y-15310174D02*
X14434944Y-15300650D01*
X14434944Y-15300650D02*
X14415896Y-15272079D01*
X14415896Y-15272079D02*
X14406372Y-15253031D01*
X14406372Y-15253031D02*
X14396849Y-15224460D01*
X14396849Y-15224460D02*
X14387325Y-15176841D01*
X14387325Y-15176841D02*
X14387325Y-15138746D01*
X14387325Y-15138746D02*
X14396849Y-15091127D01*
X14396849Y-15091127D02*
X14406372Y-15062555D01*
X14406372Y-15062555D02*
X14415896Y-15043508D01*
X14415896Y-15043508D02*
X14434944Y-15014936D01*
X14434944Y-15014936D02*
X14444468Y-15005412D01*
X14520658Y-15100650D02*
X14520658Y-15233984D01*
X14520658Y-15119698D02*
X14530182Y-15110174D01*
X14530182Y-15110174D02*
X14549230Y-15100650D01*
X14549230Y-15100650D02*
X14577801Y-15100650D01*
X14577801Y-15100650D02*
X14596849Y-15110174D01*
X14596849Y-15110174D02*
X14606372Y-15129222D01*
X14606372Y-15129222D02*
X14606372Y-15233984D01*
X14730182Y-15233984D02*
X14711134Y-15224460D01*
X14711134Y-15224460D02*
X14701611Y-15214936D01*
X14701611Y-15214936D02*
X14692087Y-15195888D01*
X14692087Y-15195888D02*
X14692087Y-15138746D01*
X14692087Y-15138746D02*
X14701611Y-15119698D01*
X14701611Y-15119698D02*
X14711134Y-15110174D01*
X14711134Y-15110174D02*
X14730182Y-15100650D01*
X14730182Y-15100650D02*
X14758753Y-15100650D01*
X14758753Y-15100650D02*
X14777801Y-15110174D01*
X14777801Y-15110174D02*
X14787325Y-15119698D01*
X14787325Y-15119698D02*
X14796849Y-15138746D01*
X14796849Y-15138746D02*
X14796849Y-15195888D01*
X14796849Y-15195888D02*
X14787325Y-15214936D01*
X14787325Y-15214936D02*
X14777801Y-15224460D01*
X14777801Y-15224460D02*
X14758753Y-15233984D01*
X14758753Y-15233984D02*
X14730182Y-15233984D01*
X14853992Y-15100650D02*
X14930182Y-15100650D01*
X14882563Y-15033984D02*
X14882563Y-15205412D01*
X14882563Y-15205412D02*
X14892087Y-15224460D01*
X14892087Y-15224460D02*
X14911134Y-15233984D01*
X14911134Y-15233984D02*
X14930182Y-15233984D01*
X15149230Y-15100650D02*
X15149230Y-15300650D01*
X15149230Y-15110174D02*
X15168277Y-15100650D01*
X15168277Y-15100650D02*
X15206373Y-15100650D01*
X15206373Y-15100650D02*
X15225420Y-15110174D01*
X15225420Y-15110174D02*
X15234944Y-15119698D01*
X15234944Y-15119698D02*
X15244468Y-15138746D01*
X15244468Y-15138746D02*
X15244468Y-15195888D01*
X15244468Y-15195888D02*
X15234944Y-15214936D01*
X15234944Y-15214936D02*
X15225420Y-15224460D01*
X15225420Y-15224460D02*
X15206373Y-15233984D01*
X15206373Y-15233984D02*
X15168277Y-15233984D01*
X15168277Y-15233984D02*
X15149230Y-15224460D01*
X15358753Y-15233984D02*
X15339706Y-15224460D01*
X15339706Y-15224460D02*
X15330182Y-15205412D01*
X15330182Y-15205412D02*
X15330182Y-15033984D01*
X15520658Y-15233984D02*
X15520658Y-15129222D01*
X15520658Y-15129222D02*
X15511134Y-15110174D01*
X15511134Y-15110174D02*
X15492087Y-15100650D01*
X15492087Y-15100650D02*
X15453992Y-15100650D01*
X15453992Y-15100650D02*
X15434944Y-15110174D01*
X15520658Y-15224460D02*
X15501611Y-15233984D01*
X15501611Y-15233984D02*
X15453992Y-15233984D01*
X15453992Y-15233984D02*
X15434944Y-15224460D01*
X15434944Y-15224460D02*
X15425420Y-15205412D01*
X15425420Y-15205412D02*
X15425420Y-15186365D01*
X15425420Y-15186365D02*
X15434944Y-15167317D01*
X15434944Y-15167317D02*
X15453992Y-15157793D01*
X15453992Y-15157793D02*
X15501611Y-15157793D01*
X15501611Y-15157793D02*
X15520658Y-15148269D01*
X15587325Y-15100650D02*
X15663515Y-15100650D01*
X15615896Y-15033984D02*
X15615896Y-15205412D01*
X15615896Y-15205412D02*
X15625420Y-15224460D01*
X15625420Y-15224460D02*
X15644468Y-15233984D01*
X15644468Y-15233984D02*
X15663515Y-15233984D01*
X15806373Y-15224460D02*
X15787325Y-15233984D01*
X15787325Y-15233984D02*
X15749230Y-15233984D01*
X15749230Y-15233984D02*
X15730182Y-15224460D01*
X15730182Y-15224460D02*
X15720658Y-15205412D01*
X15720658Y-15205412D02*
X15720658Y-15129222D01*
X15720658Y-15129222D02*
X15730182Y-15110174D01*
X15730182Y-15110174D02*
X15749230Y-15100650D01*
X15749230Y-15100650D02*
X15787325Y-15100650D01*
X15787325Y-15100650D02*
X15806373Y-15110174D01*
X15806373Y-15110174D02*
X15815896Y-15129222D01*
X15815896Y-15129222D02*
X15815896Y-15148269D01*
X15815896Y-15148269D02*
X15720658Y-15167317D01*
X15987325Y-15233984D02*
X15987325Y-15033984D01*
X15987325Y-15224460D02*
X15968277Y-15233984D01*
X15968277Y-15233984D02*
X15930182Y-15233984D01*
X15930182Y-15233984D02*
X15911134Y-15224460D01*
X15911134Y-15224460D02*
X15901611Y-15214936D01*
X15901611Y-15214936D02*
X15892087Y-15195888D01*
X15892087Y-15195888D02*
X15892087Y-15138746D01*
X15892087Y-15138746D02*
X15901611Y-15119698D01*
X15901611Y-15119698D02*
X15911134Y-15110174D01*
X15911134Y-15110174D02*
X15930182Y-15100650D01*
X15930182Y-15100650D02*
X15968277Y-15100650D01*
X15968277Y-15100650D02*
X15987325Y-15110174D01*
X16063515Y-15310174D02*
X16073039Y-15300650D01*
X16073039Y-15300650D02*
X16092087Y-15272079D01*
X16092087Y-15272079D02*
X16101611Y-15253031D01*
X16101611Y-15253031D02*
X16111134Y-15224460D01*
X16111134Y-15224460D02*
X16120658Y-15176841D01*
X16120658Y-15176841D02*
X16120658Y-15138746D01*
X16120658Y-15138746D02*
X16111134Y-15091127D01*
X16111134Y-15091127D02*
X16101611Y-15062555D01*
X16101611Y-15062555D02*
X16092087Y-15043508D01*
X16092087Y-15043508D02*
X16073039Y-15014936D01*
X16073039Y-15014936D02*
X16063515Y-15005412D01*
M02*
