%TF.GenerationSoftware,KiCad,Pcbnew,9.0.4-9.0.4-0~ubuntu24.04.1*%
%TF.CreationDate,2025-09-21T15:36:24+02:00*%
%TF.ProjectId,CarteMere,43617274-654d-4657-9265-2e6b69636164,rev?*%
%TF.SameCoordinates,Original*%
%TF.FileFunction,Soldermask,Bot*%
%TF.FilePolarity,Negative*%
%FSLAX46Y46*%
G04 Gerber Fmt 4.6, Leading zero omitted, Abs format (unit mm)*
G04 Created by KiCad (PCBNEW 9.0.4-9.0.4-0~ubuntu24.04.1) date 2025-09-21 15:36:24*
%MOMM*%
%LPD*%
G01*
G04 APERTURE LIST*
G04 Aperture macros list*
%AMRoundRect*
0 Rectangle with rounded corners*
0 $1 Rounding radius*
0 $2 $3 $4 $5 $6 $7 $8 $9 X,Y pos of 4 corners*
0 Add a 4 corners polygon primitive as box body*
4,1,4,$2,$3,$4,$5,$6,$7,$8,$9,$2,$3,0*
0 Add four circle primitives for the rounded corners*
1,1,$1+$1,$2,$3*
1,1,$1+$1,$4,$5*
1,1,$1+$1,$6,$7*
1,1,$1+$1,$8,$9*
0 Add four rect primitives between the rounded corners*
20,1,$1+$1,$2,$3,$4,$5,0*
20,1,$1+$1,$4,$5,$6,$7,0*
20,1,$1+$1,$6,$7,$8,$9,0*
20,1,$1+$1,$8,$9,$2,$3,0*%
G04 Aperture macros list end*
%ADD10RoundRect,0.250000X-0.725000X0.600000X-0.725000X-0.600000X0.725000X-0.600000X0.725000X0.600000X0*%
%ADD11O,1.950000X1.700000*%
%ADD12RoundRect,0.250000X-0.600000X-0.725000X0.600000X-0.725000X0.600000X0.725000X-0.600000X0.725000X0*%
%ADD13O,1.700000X1.950000*%
%ADD14R,1.700000X1.700000*%
%ADD15C,1.700000*%
%ADD16RoundRect,0.250000X0.725000X-0.600000X0.725000X0.600000X-0.725000X0.600000X-0.725000X-0.600000X0*%
%ADD17RoundRect,0.250000X0.600000X0.725000X-0.600000X0.725000X-0.600000X-0.725000X0.600000X-0.725000X0*%
%ADD18C,4.400000*%
%ADD19C,0.650000*%
%ADD20O,1.000000X2.100000*%
%ADD21O,1.000000X1.600000*%
%ADD22C,1.600000*%
%ADD23C,2.200000*%
%ADD24RoundRect,0.140000X-0.170000X0.140000X-0.170000X-0.140000X0.170000X-0.140000X0.170000X0.140000X0*%
%ADD25RoundRect,0.140000X0.170000X-0.140000X0.170000X0.140000X-0.170000X0.140000X-0.170000X-0.140000X0*%
%ADD26RoundRect,0.140000X-0.140000X-0.170000X0.140000X-0.170000X0.140000X0.170000X-0.140000X0.170000X0*%
%ADD27RoundRect,0.140000X0.140000X0.170000X-0.140000X0.170000X-0.140000X-0.170000X0.140000X-0.170000X0*%
%ADD28RoundRect,0.135000X-0.185000X0.135000X-0.185000X-0.135000X0.185000X-0.135000X0.185000X0.135000X0*%
%ADD29RoundRect,0.135000X0.185000X-0.135000X0.185000X0.135000X-0.185000X0.135000X-0.185000X-0.135000X0*%
%ADD30RoundRect,0.135000X-0.135000X-0.185000X0.135000X-0.185000X0.135000X0.185000X-0.135000X0.185000X0*%
G04 APERTURE END LIST*
D10*
%TO.C,J46*%
X179600000Y-65000000D03*
D11*
X179600000Y-67500000D03*
X179600000Y-70000000D03*
X179600000Y-72500000D03*
X179600000Y-75000000D03*
%TD*%
D12*
%TO.C,J42*%
X104100000Y-118800000D03*
D13*
X106600000Y-118800000D03*
X109100000Y-118800000D03*
X111600000Y-118800000D03*
X114100000Y-118800000D03*
%TD*%
D14*
%TO.C,J39*%
X165180000Y-53380000D03*
D15*
X165180000Y-55920000D03*
X165180000Y-58460000D03*
X165180000Y-61000000D03*
X165180000Y-63540000D03*
X165180000Y-66080000D03*
X165180000Y-68620000D03*
X165180000Y-71160000D03*
X165180000Y-73700000D03*
%TD*%
D16*
%TO.C,J7*%
X96320000Y-134650000D03*
D11*
X96320000Y-132150000D03*
X96320000Y-129650000D03*
X96320000Y-127150000D03*
X96320000Y-124650000D03*
X96320000Y-122150000D03*
%TD*%
D14*
%TO.C,J9*%
X144960000Y-58940000D03*
D15*
X147500000Y-58940000D03*
X150040000Y-58940000D03*
X152580000Y-58940000D03*
%TD*%
D17*
%TO.C,J12*%
X120100000Y-60550000D03*
D13*
X117600000Y-60550000D03*
X115100000Y-60550000D03*
X112600000Y-60550000D03*
X110100000Y-60550000D03*
X107600000Y-60550000D03*
%TD*%
D18*
%TO.C,H2*%
X180100000Y-141000000D03*
%TD*%
D12*
%TO.C,J44*%
X104100000Y-125100000D03*
D13*
X106600000Y-125100000D03*
X109100000Y-125100000D03*
X111600000Y-125100000D03*
X114100000Y-125100000D03*
%TD*%
D14*
%TO.C,J22*%
X152580000Y-53860000D03*
D15*
X150040000Y-53860000D03*
X147500000Y-53860000D03*
X144960000Y-53860000D03*
%TD*%
D10*
%TO.C,J45*%
X179600000Y-119500000D03*
D11*
X179600000Y-122000000D03*
X179600000Y-124500000D03*
X179600000Y-127000000D03*
X179600000Y-129500000D03*
%TD*%
D10*
%TO.C,J37*%
X105100000Y-102800000D03*
D11*
X105100000Y-105300000D03*
X105100000Y-107800000D03*
X105100000Y-110300000D03*
X105100000Y-112800000D03*
%TD*%
D12*
%TO.C,J28*%
X142100000Y-141000000D03*
D13*
X144600000Y-141000000D03*
X147100000Y-141000000D03*
X149600000Y-141000000D03*
X152100000Y-141000000D03*
X154600000Y-141000000D03*
%TD*%
D18*
%TO.C,H4*%
X180100000Y-54000000D03*
%TD*%
D12*
%TO.C,J30*%
X142100000Y-129000000D03*
D13*
X144600000Y-129000000D03*
X147100000Y-129000000D03*
X149600000Y-129000000D03*
X152100000Y-129000000D03*
X154600000Y-129000000D03*
%TD*%
D14*
%TO.C,J40*%
X160100000Y-53380000D03*
D15*
X160100000Y-55920000D03*
X160100000Y-58460000D03*
X160100000Y-61000000D03*
X160100000Y-63540000D03*
X160100000Y-66080000D03*
X160100000Y-68620000D03*
X160100000Y-71160000D03*
X160100000Y-73700000D03*
%TD*%
D16*
%TO.C,J19*%
X96270000Y-77600000D03*
D11*
X96270000Y-75100000D03*
X96270000Y-72600000D03*
X96270000Y-70100000D03*
X96270000Y-67600000D03*
X96270000Y-65100000D03*
%TD*%
D14*
%TO.C,JP1*%
X162950000Y-83310000D03*
D15*
X162950000Y-85850000D03*
%TD*%
D10*
%TO.C,J11*%
X161500000Y-101100000D03*
D11*
X161500000Y-103600000D03*
X161500000Y-106100000D03*
X161500000Y-108600000D03*
X161500000Y-111100000D03*
X161500000Y-113600000D03*
X161500000Y-116100000D03*
%TD*%
D17*
%TO.C,J16*%
X120100000Y-78800000D03*
D13*
X117600000Y-78800000D03*
X115100000Y-78800000D03*
X112600000Y-78800000D03*
X110100000Y-78800000D03*
X107600000Y-78800000D03*
X105100000Y-78800000D03*
%TD*%
D16*
%TO.C,J13*%
X96320000Y-96550000D03*
D11*
X96320000Y-94050000D03*
X96320000Y-91550000D03*
X96320000Y-89050000D03*
X96320000Y-86550000D03*
X96320000Y-84050000D03*
%TD*%
D10*
%TO.C,J33*%
X173740000Y-106050000D03*
D11*
X173740000Y-108550000D03*
X173740000Y-111050000D03*
X173740000Y-113550000D03*
X173740000Y-116050000D03*
%TD*%
D18*
%TO.C,H1*%
X97100000Y-141000000D03*
%TD*%
D17*
%TO.C,J1*%
X120100000Y-66550000D03*
D13*
X117600000Y-66550000D03*
X115100000Y-66550000D03*
X112600000Y-66550000D03*
X110100000Y-66550000D03*
X107600000Y-66550000D03*
%TD*%
D16*
%TO.C,J5*%
X96320000Y-115650000D03*
D11*
X96320000Y-113150000D03*
X96320000Y-110650000D03*
X96320000Y-108150000D03*
X96320000Y-105650000D03*
X96320000Y-103150000D03*
%TD*%
D14*
%TO.C,J14*%
X152580000Y-56400000D03*
D15*
X150040000Y-56400000D03*
X147500000Y-56400000D03*
X144960000Y-56400000D03*
%TD*%
D12*
%TO.C,J36*%
X128600000Y-53900000D03*
D13*
X131100000Y-53900000D03*
X133600000Y-53900000D03*
X136100000Y-53900000D03*
X138600000Y-53900000D03*
%TD*%
D12*
%TO.C,J47*%
X104100000Y-131200000D03*
D13*
X106600000Y-131200000D03*
X109100000Y-131200000D03*
X111600000Y-131200000D03*
X114100000Y-131200000D03*
%TD*%
D14*
%TO.C,J8*%
X116920000Y-103800000D03*
D15*
X116920000Y-101260000D03*
X116920000Y-98720000D03*
X116920000Y-96180000D03*
X116920000Y-93640000D03*
X116920000Y-91100000D03*
X116920000Y-88560000D03*
%TD*%
D14*
%TO.C,J3*%
X111840000Y-103800000D03*
D15*
X111840000Y-101260000D03*
X111840000Y-98720000D03*
X111840000Y-96180000D03*
X111840000Y-93640000D03*
X111840000Y-91100000D03*
X111840000Y-88560000D03*
%TD*%
D10*
%TO.C,J34*%
X105100000Y-85200000D03*
D11*
X105100000Y-87700000D03*
X105100000Y-90200000D03*
X105100000Y-92700000D03*
X105100000Y-95200000D03*
%TD*%
D12*
%TO.C,J29*%
X142100000Y-135000000D03*
D13*
X144600000Y-135000000D03*
X147100000Y-135000000D03*
X149600000Y-135000000D03*
X152100000Y-135000000D03*
X154600000Y-135000000D03*
%TD*%
D10*
%TO.C,J35*%
X172600000Y-65010000D03*
D11*
X172600000Y-67510000D03*
X172600000Y-70010000D03*
X172600000Y-72510000D03*
X172600000Y-75010000D03*
%TD*%
D19*
%TO.C,J48*%
X129080000Y-137050000D03*
X134860000Y-137050000D03*
D20*
X127650000Y-136520000D03*
D21*
X127650000Y-140700000D03*
D20*
X136290000Y-136520000D03*
D21*
X136290000Y-140700000D03*
%TD*%
D14*
%TO.C,J32*%
X162640000Y-53380000D03*
D15*
X162640000Y-55920000D03*
X162640000Y-58460000D03*
X162640000Y-61000000D03*
X162640000Y-63540000D03*
X162640000Y-66080000D03*
X162640000Y-68620000D03*
X162640000Y-71160000D03*
X162640000Y-73700000D03*
%TD*%
D17*
%TO.C,J6*%
X120100000Y-72550000D03*
D13*
X117600000Y-72550000D03*
X115100000Y-72550000D03*
X112600000Y-72550000D03*
X110100000Y-72550000D03*
X107600000Y-72550000D03*
%TD*%
D14*
%TO.C,J2*%
X114380000Y-103800000D03*
D15*
X114380000Y-101260000D03*
X114380000Y-98720000D03*
X114380000Y-96180000D03*
X114380000Y-93640000D03*
X114380000Y-91100000D03*
X114380000Y-88560000D03*
%TD*%
D18*
%TO.C,H3*%
X97100000Y-54000000D03*
%TD*%
D12*
%TO.C,J25*%
X142100000Y-117000000D03*
D13*
X144600000Y-117000000D03*
X147100000Y-117000000D03*
X149600000Y-117000000D03*
X152100000Y-117000000D03*
X154600000Y-117000000D03*
%TD*%
D17*
%TO.C,J18*%
X120080000Y-54480000D03*
D13*
X117580000Y-54480000D03*
X115080000Y-54480000D03*
X112580000Y-54480000D03*
X110080000Y-54480000D03*
X107580000Y-54480000D03*
%TD*%
D22*
%TO.C,U1*%
X170140000Y-126250000D03*
X167600000Y-126250000D03*
X165060000Y-126250000D03*
%TD*%
D12*
%TO.C,J27*%
X142100000Y-123000000D03*
D13*
X144600000Y-123000000D03*
X147100000Y-123000000D03*
X149600000Y-123000000D03*
X152100000Y-123000000D03*
X154600000Y-123000000D03*
%TD*%
D23*
%TO.C,J49*%
X165220000Y-140150000D03*
X170220000Y-140150000D03*
%TD*%
D10*
%TO.C,J10*%
X173740000Y-89300000D03*
D11*
X173740000Y-91800000D03*
X173740000Y-94300000D03*
X173740000Y-96800000D03*
X173740000Y-99300000D03*
%TD*%
D10*
%TO.C,J41*%
X179600000Y-83000000D03*
D11*
X179600000Y-85500000D03*
X179600000Y-88000000D03*
X179600000Y-90500000D03*
X179600000Y-93000000D03*
%TD*%
D10*
%TO.C,J17*%
X167700000Y-101100000D03*
D11*
X167700000Y-103600000D03*
X167700000Y-106100000D03*
X167700000Y-108600000D03*
X167700000Y-111100000D03*
X167700000Y-113600000D03*
X167700000Y-116100000D03*
%TD*%
D10*
%TO.C,J43*%
X179600000Y-101500000D03*
D11*
X179600000Y-104000000D03*
X179600000Y-106500000D03*
X179600000Y-109000000D03*
X179600000Y-111500000D03*
%TD*%
D24*
%TO.C,C26*%
X160370000Y-86620000D03*
X160370000Y-87580000D03*
%TD*%
D25*
%TO.C,C14*%
X132070000Y-84250000D03*
X132070000Y-83290000D03*
%TD*%
D26*
%TO.C,C16*%
X131370000Y-102300000D03*
X132330000Y-102300000D03*
%TD*%
%TO.C,C17*%
X131140000Y-89950000D03*
X132100000Y-89950000D03*
%TD*%
D27*
%TO.C,C29*%
X152650000Y-102000000D03*
X151690000Y-102000000D03*
%TD*%
D25*
%TO.C,C22*%
X144220000Y-104130000D03*
X144220000Y-103170000D03*
%TD*%
D27*
%TO.C,C23*%
X152680000Y-87400000D03*
X151720000Y-87400000D03*
%TD*%
D25*
%TO.C,C19*%
X139420000Y-104110000D03*
X139420000Y-103150000D03*
%TD*%
D27*
%TO.C,C31*%
X152680000Y-86200000D03*
X151720000Y-86200000D03*
%TD*%
D25*
%TO.C,C11*%
X150720000Y-104100000D03*
X150720000Y-103140000D03*
%TD*%
D27*
%TO.C,C25*%
X152650000Y-93500000D03*
X151690000Y-93500000D03*
%TD*%
%TO.C,C27*%
X152650000Y-98250000D03*
X151690000Y-98250000D03*
%TD*%
D26*
%TO.C,C20*%
X151720000Y-83800000D03*
X152680000Y-83800000D03*
%TD*%
D27*
%TO.C,C30*%
X152680000Y-85000000D03*
X151720000Y-85000000D03*
%TD*%
D26*
%TO.C,C5*%
X131160000Y-88800000D03*
X132120000Y-88800000D03*
%TD*%
D25*
%TO.C,C28*%
X140870000Y-104110000D03*
X140870000Y-103150000D03*
%TD*%
D26*
%TO.C,C10*%
X131370000Y-101050000D03*
X132330000Y-101050000D03*
%TD*%
%TO.C,C9*%
X131200000Y-95870000D03*
X132160000Y-95870000D03*
%TD*%
D24*
%TO.C,C33*%
X134470000Y-83290000D03*
X134470000Y-84250000D03*
%TD*%
D27*
%TO.C,C8*%
X132330000Y-103650000D03*
X131370000Y-103650000D03*
%TD*%
D24*
%TO.C,C21*%
X145720000Y-83270000D03*
X145720000Y-84230000D03*
%TD*%
%TO.C,C7*%
X140720000Y-83190000D03*
X140720000Y-84150000D03*
%TD*%
D28*
%TO.C,R20*%
X146120000Y-103080000D03*
X146120000Y-104100000D03*
%TD*%
D29*
%TO.C,R23*%
X143210000Y-78980000D03*
X143210000Y-77960000D03*
%TD*%
D24*
%TO.C,C32*%
X135720000Y-83290000D03*
X135720000Y-84250000D03*
%TD*%
%TO.C,C13*%
X133270000Y-83300000D03*
X133270000Y-84260000D03*
%TD*%
D28*
%TO.C,R21*%
X147270000Y-103080000D03*
X147270000Y-104100000D03*
%TD*%
D30*
%TO.C,R5*%
X151670000Y-97000000D03*
X152690000Y-97000000D03*
%TD*%
D28*
%TO.C,R11*%
X148420000Y-103080000D03*
X148420000Y-104100000D03*
%TD*%
D24*
%TO.C,C24*%
X158970000Y-86620000D03*
X158970000Y-87580000D03*
%TD*%
D30*
%TO.C,R3*%
X151670000Y-95750000D03*
X152690000Y-95750000D03*
%TD*%
M02*
