%TF.GenerationSoftware,KiCad,Pcbnew,9.0.4-9.0.4-0~ubuntu24.04.1*%
%TF.CreationDate,2025-09-24T00:09:48+02:00*%
%TF.ProjectId,CarteMere,43617274-654d-4657-9265-2e6b69636164,rev?*%
%TF.SameCoordinates,Original*%
%TF.FileFunction,Soldermask,Top*%
%TF.FilePolarity,Negative*%
%FSLAX46Y46*%
G04 Gerber Fmt 4.6, Leading zero omitted, Abs format (unit mm)*
G04 Created by KiCad (PCBNEW 9.0.4-9.0.4-0~ubuntu24.04.1) date 2025-09-24 00:09:48*
%MOMM*%
%LPD*%
G01*
G04 APERTURE LIST*
G04 Aperture macros list*
%AMRoundRect*
0 Rectangle with rounded corners*
0 $1 Rounding radius*
0 $2 $3 $4 $5 $6 $7 $8 $9 X,Y pos of 4 corners*
0 Add a 4 corners polygon primitive as box body*
4,1,4,$2,$3,$4,$5,$6,$7,$8,$9,$2,$3,0*
0 Add four circle primitives for the rounded corners*
1,1,$1+$1,$2,$3*
1,1,$1+$1,$4,$5*
1,1,$1+$1,$6,$7*
1,1,$1+$1,$8,$9*
0 Add four rect primitives between the rounded corners*
20,1,$1+$1,$2,$3,$4,$5,0*
20,1,$1+$1,$4,$5,$6,$7,0*
20,1,$1+$1,$6,$7,$8,$9,0*
20,1,$1+$1,$8,$9,$2,$3,0*%
G04 Aperture macros list end*
%ADD10RoundRect,0.135000X0.135000X0.185000X-0.135000X0.185000X-0.135000X-0.185000X0.135000X-0.185000X0*%
%ADD11RoundRect,0.250000X-0.600000X-0.725000X0.600000X-0.725000X0.600000X0.725000X-0.600000X0.725000X0*%
%ADD12O,1.700000X1.950000*%
%ADD13RoundRect,0.135000X-0.135000X-0.185000X0.135000X-0.185000X0.135000X0.185000X-0.135000X0.185000X0*%
%ADD14RoundRect,0.250000X-0.725000X0.600000X-0.725000X-0.600000X0.725000X-0.600000X0.725000X0.600000X0*%
%ADD15O,1.950000X1.700000*%
%ADD16R,1.700000X1.700000*%
%ADD17C,1.700000*%
%ADD18RoundRect,0.250000X0.725000X-0.600000X0.725000X0.600000X-0.725000X0.600000X-0.725000X-0.600000X0*%
%ADD19RoundRect,0.250000X0.250000X0.475000X-0.250000X0.475000X-0.250000X-0.475000X0.250000X-0.475000X0*%
%ADD20RoundRect,0.075000X0.675000X0.075000X-0.675000X0.075000X-0.675000X-0.075000X0.675000X-0.075000X0*%
%ADD21RoundRect,0.075000X0.075000X0.675000X-0.075000X0.675000X-0.075000X-0.675000X0.075000X-0.675000X0*%
%ADD22RoundRect,0.225000X0.250000X-0.225000X0.250000X0.225000X-0.250000X0.225000X-0.250000X-0.225000X0*%
%ADD23RoundRect,0.210000X-0.490000X0.590000X-0.490000X-0.590000X0.490000X-0.590000X0.490000X0.590000X0*%
%ADD24RoundRect,0.250000X0.600000X0.725000X-0.600000X0.725000X-0.600000X-0.725000X0.600000X-0.725000X0*%
%ADD25C,4.400000*%
%ADD26RoundRect,0.135000X-0.185000X0.135000X-0.185000X-0.135000X0.185000X-0.135000X0.185000X0.135000X0*%
%ADD27RoundRect,0.135000X0.185000X-0.135000X0.185000X0.135000X-0.185000X0.135000X-0.185000X-0.135000X0*%
%ADD28RoundRect,0.093750X-0.093750X0.156250X-0.093750X-0.156250X0.093750X-0.156250X0.093750X0.156250X0*%
%ADD29RoundRect,0.075000X-0.075000X0.250000X-0.075000X-0.250000X0.075000X-0.250000X0.075000X0.250000X0*%
%ADD30RoundRect,0.270000X0.630000X-2.030000X0.630000X2.030000X-0.630000X2.030000X-0.630000X-2.030000X0*%
%ADD31RoundRect,0.102000X-0.450000X-0.300000X0.450000X-0.300000X0.450000X0.300000X-0.450000X0.300000X0*%
%ADD32RoundRect,0.140000X0.170000X-0.140000X0.170000X0.140000X-0.170000X0.140000X-0.170000X-0.140000X0*%
%ADD33RoundRect,0.250000X-0.650000X1.000000X-0.650000X-1.000000X0.650000X-1.000000X0.650000X1.000000X0*%
%ADD34RoundRect,0.250000X0.325000X0.650000X-0.325000X0.650000X-0.325000X-0.650000X0.325000X-0.650000X0*%
%ADD35RoundRect,0.140000X0.140000X0.170000X-0.140000X0.170000X-0.140000X-0.170000X0.140000X-0.170000X0*%
%ADD36R,1.350000X0.600000*%
%ADD37RoundRect,0.225000X-0.250000X0.225000X-0.250000X-0.225000X0.250000X-0.225000X0.250000X0.225000X0*%
%ADD38R,0.740000X2.400000*%
%ADD39C,0.650000*%
%ADD40R,0.600000X1.450000*%
%ADD41R,0.300000X1.450000*%
%ADD42O,1.000000X2.100000*%
%ADD43O,1.000000X1.600000*%
%ADD44RoundRect,0.140000X-0.140000X-0.170000X0.140000X-0.170000X0.140000X0.170000X-0.140000X0.170000X0*%
%ADD45C,1.600000*%
%ADD46C,2.200000*%
G04 APERTURE END LIST*
D10*
%TO.C,R15*%
X126020000Y-98500000D03*
X127040000Y-98500000D03*
%TD*%
D11*
%TO.C,J4*%
X104140000Y-131530000D03*
D12*
X106640000Y-131530000D03*
X109140000Y-131530000D03*
X111640000Y-131530000D03*
X114140000Y-131530000D03*
X116640000Y-131530000D03*
X119140000Y-131530000D03*
%TD*%
D13*
%TO.C,R12*%
X157190000Y-85500000D03*
X158210000Y-85500000D03*
%TD*%
D14*
%TO.C,J46*%
X179600000Y-65000000D03*
D15*
X179600000Y-67500000D03*
X179600000Y-70000000D03*
X179600000Y-72500000D03*
X179600000Y-75000000D03*
%TD*%
D11*
%TO.C,J42*%
X104100000Y-118800000D03*
D12*
X106600000Y-118800000D03*
X109100000Y-118800000D03*
X111600000Y-118800000D03*
X114100000Y-118800000D03*
%TD*%
D10*
%TO.C,R9*%
X127090000Y-102500000D03*
X126070000Y-102500000D03*
%TD*%
D16*
%TO.C,J39*%
X165180000Y-53380000D03*
D17*
X165180000Y-55920000D03*
X165180000Y-58460000D03*
X165180000Y-61000000D03*
X165180000Y-63540000D03*
X165180000Y-66080000D03*
X165180000Y-68620000D03*
X165180000Y-71160000D03*
X165180000Y-73700000D03*
%TD*%
D18*
%TO.C,J7*%
X96320000Y-134650000D03*
D15*
X96320000Y-132150000D03*
X96320000Y-129650000D03*
X96320000Y-127150000D03*
X96320000Y-124650000D03*
X96320000Y-122150000D03*
%TD*%
D19*
%TO.C,C36*%
X168500000Y-134500000D03*
X166600000Y-134500000D03*
%TD*%
D20*
%TO.C,U3*%
X154645000Y-104500000D03*
X154645000Y-104000000D03*
X154645000Y-103500000D03*
X154645000Y-103000000D03*
X154645000Y-102500000D03*
X154645000Y-102000000D03*
X154645000Y-101500000D03*
X154645000Y-101000000D03*
X154645000Y-100500000D03*
X154645000Y-100000000D03*
X154645000Y-99500000D03*
X154645000Y-99000000D03*
X154645000Y-98500000D03*
X154645000Y-98000000D03*
X154645000Y-97500000D03*
X154645000Y-97000000D03*
X154645000Y-96500000D03*
X154645000Y-96000000D03*
X154645000Y-95500000D03*
X154645000Y-95000000D03*
X154645000Y-94500000D03*
X154645000Y-94000000D03*
X154645000Y-93500000D03*
X154645000Y-93000000D03*
X154645000Y-92500000D03*
X154645000Y-92000000D03*
X154645000Y-91500000D03*
X154645000Y-91000000D03*
X154645000Y-90500000D03*
X154645000Y-90000000D03*
X154645000Y-89500000D03*
X154645000Y-89000000D03*
X154645000Y-88500000D03*
X154645000Y-88000000D03*
X154645000Y-87500000D03*
X154645000Y-87000000D03*
X154645000Y-86500000D03*
X154645000Y-86000000D03*
X154645000Y-85500000D03*
X154645000Y-85000000D03*
X154645000Y-84500000D03*
X154645000Y-84000000D03*
X154645000Y-83500000D03*
X154645000Y-83000000D03*
D21*
X152720000Y-81075000D03*
X152220000Y-81075000D03*
X151720000Y-81075000D03*
X151220000Y-81075000D03*
X150720000Y-81075000D03*
X150220000Y-81075000D03*
X149720000Y-81075000D03*
X149220000Y-81075000D03*
X148720000Y-81075000D03*
X148220000Y-81075000D03*
X147720000Y-81075000D03*
X147220000Y-81075000D03*
X146720000Y-81075000D03*
X146220000Y-81075000D03*
X145720000Y-81075000D03*
X145220000Y-81075000D03*
X144720000Y-81075000D03*
X144220000Y-81075000D03*
X143720000Y-81075000D03*
X143220000Y-81075000D03*
X142720000Y-81075000D03*
X142220000Y-81075000D03*
X141720000Y-81075000D03*
X141220000Y-81075000D03*
X140720000Y-81075000D03*
X140220000Y-81075000D03*
X139720000Y-81075000D03*
X139220000Y-81075000D03*
X138720000Y-81075000D03*
X138220000Y-81075000D03*
X137720000Y-81075000D03*
X137220000Y-81075000D03*
X136720000Y-81075000D03*
X136220000Y-81075000D03*
X135720000Y-81075000D03*
X135220000Y-81075000D03*
X134720000Y-81075000D03*
X134220000Y-81075000D03*
X133720000Y-81075000D03*
X133220000Y-81075000D03*
X132720000Y-81075000D03*
X132220000Y-81075000D03*
X131720000Y-81075000D03*
X131220000Y-81075000D03*
D20*
X129295000Y-83000000D03*
X129295000Y-83500000D03*
X129295000Y-84000000D03*
X129295000Y-84500000D03*
X129295000Y-85000000D03*
X129295000Y-85500000D03*
X129295000Y-86000000D03*
X129295000Y-86500000D03*
X129295000Y-87000000D03*
X129295000Y-87500000D03*
X129295000Y-88000000D03*
X129295000Y-88500000D03*
X129295000Y-89000000D03*
X129295000Y-89500000D03*
X129295000Y-90000000D03*
X129295000Y-90500000D03*
X129295000Y-91000000D03*
X129295000Y-91500000D03*
X129295000Y-92000000D03*
X129295000Y-92500000D03*
X129295000Y-93000000D03*
X129295000Y-93500000D03*
X129295000Y-94000000D03*
X129295000Y-94500000D03*
X129295000Y-95000000D03*
X129295000Y-95500000D03*
X129295000Y-96000000D03*
X129295000Y-96500000D03*
X129295000Y-97000000D03*
X129295000Y-97500000D03*
X129295000Y-98000000D03*
X129295000Y-98500000D03*
X129295000Y-99000000D03*
X129295000Y-99500000D03*
X129295000Y-100000000D03*
X129295000Y-100500000D03*
X129295000Y-101000000D03*
X129295000Y-101500000D03*
X129295000Y-102000000D03*
X129295000Y-102500000D03*
X129295000Y-103000000D03*
X129295000Y-103500000D03*
X129295000Y-104000000D03*
X129295000Y-104500000D03*
D21*
X131220000Y-106425000D03*
X131720000Y-106425000D03*
X132220000Y-106425000D03*
X132720000Y-106425000D03*
X133220000Y-106425000D03*
X133720000Y-106425000D03*
X134220000Y-106425000D03*
X134720000Y-106425000D03*
X135220000Y-106425000D03*
X135720000Y-106425000D03*
X136220000Y-106425000D03*
X136720000Y-106425000D03*
X137220000Y-106425000D03*
X137720000Y-106425000D03*
X138220000Y-106425000D03*
X138720000Y-106425000D03*
X139220000Y-106425000D03*
X139720000Y-106425000D03*
X140220000Y-106425000D03*
X140720000Y-106425000D03*
X141220000Y-106425000D03*
X141720000Y-106425000D03*
X142220000Y-106425000D03*
X142720000Y-106425000D03*
X143220000Y-106425000D03*
X143720000Y-106425000D03*
X144220000Y-106425000D03*
X144720000Y-106425000D03*
X145220000Y-106425000D03*
X145720000Y-106425000D03*
X146220000Y-106425000D03*
X146720000Y-106425000D03*
X147220000Y-106425000D03*
X147720000Y-106425000D03*
X148220000Y-106425000D03*
X148720000Y-106425000D03*
X149220000Y-106425000D03*
X149720000Y-106425000D03*
X150220000Y-106425000D03*
X150720000Y-106425000D03*
X151220000Y-106425000D03*
X151720000Y-106425000D03*
X152220000Y-106425000D03*
X152720000Y-106425000D03*
%TD*%
D22*
%TO.C,C1*%
X128650000Y-121525000D03*
X128650000Y-119975000D03*
%TD*%
%TO.C,C4*%
X165010000Y-122775000D03*
X165010000Y-121225000D03*
%TD*%
D16*
%TO.C,J9*%
X144960000Y-58940000D03*
D17*
X147500000Y-58940000D03*
X150040000Y-58940000D03*
X152580000Y-58940000D03*
%TD*%
D23*
%TO.C,U4*%
X166110000Y-88900000D03*
X166110000Y-94700000D03*
X163540000Y-94700000D03*
X163570000Y-88900000D03*
%TD*%
D24*
%TO.C,J12*%
X120100000Y-60550000D03*
D12*
X117600000Y-60550000D03*
X115100000Y-60550000D03*
X112600000Y-60550000D03*
X110100000Y-60550000D03*
X107600000Y-60550000D03*
%TD*%
D10*
%TO.C,R8*%
X158090000Y-92400000D03*
X157070000Y-92400000D03*
%TD*%
%TO.C,R17*%
X126510000Y-85500000D03*
X125490000Y-85500000D03*
%TD*%
D25*
%TO.C,H2*%
X180100000Y-141000000D03*
%TD*%
D11*
%TO.C,J44*%
X104100000Y-125100000D03*
D12*
X106600000Y-125100000D03*
X109100000Y-125100000D03*
X111600000Y-125100000D03*
X114100000Y-125100000D03*
%TD*%
D13*
%TO.C,R14*%
X157050000Y-95710000D03*
X158070000Y-95710000D03*
%TD*%
D26*
%TO.C,R6*%
X130200000Y-79190000D03*
X130200000Y-80210000D03*
%TD*%
D27*
%TO.C,R1*%
X133750000Y-132950000D03*
X133750000Y-131930000D03*
%TD*%
D22*
%TO.C,C34*%
X160880000Y-90800000D03*
X160880000Y-89250000D03*
%TD*%
D16*
%TO.C,J22*%
X152580000Y-53860000D03*
D17*
X150040000Y-53860000D03*
X147500000Y-53860000D03*
X144960000Y-53860000D03*
%TD*%
D14*
%TO.C,J45*%
X179600000Y-119500000D03*
D15*
X179600000Y-122000000D03*
X179600000Y-124500000D03*
X179600000Y-127000000D03*
X179600000Y-129500000D03*
%TD*%
D14*
%TO.C,J37*%
X105100000Y-102800000D03*
D15*
X105100000Y-105300000D03*
X105100000Y-107800000D03*
X105100000Y-110300000D03*
X105100000Y-112800000D03*
%TD*%
D28*
%TO.C,U2*%
X132875000Y-127150000D03*
D29*
X132337500Y-127075000D03*
D28*
X131800000Y-127150000D03*
X131800000Y-128850000D03*
D29*
X132337500Y-128925000D03*
D28*
X132875000Y-128850000D03*
%TD*%
D30*
%TO.C,L1*%
X140520000Y-69600000D03*
X131520000Y-69600000D03*
%TD*%
D11*
%TO.C,J28*%
X142100000Y-141000000D03*
D12*
X144600000Y-141000000D03*
X147100000Y-141000000D03*
X149600000Y-141000000D03*
X152100000Y-141000000D03*
X154600000Y-141000000D03*
%TD*%
D25*
%TO.C,H4*%
X180100000Y-54000000D03*
%TD*%
D11*
%TO.C,J30*%
X142100000Y-129000000D03*
D12*
X144600000Y-129000000D03*
X147100000Y-129000000D03*
X149600000Y-129000000D03*
X152100000Y-129000000D03*
X154600000Y-129000000D03*
%TD*%
D31*
%TO.C,PS1*%
X130750000Y-119875000D03*
X130750000Y-120825000D03*
X130750000Y-121775000D03*
X133550000Y-121775000D03*
X133550000Y-119875000D03*
%TD*%
D32*
%TO.C,C18*%
X142970000Y-71710000D03*
X142970000Y-70750000D03*
%TD*%
D16*
%TO.C,J40*%
X160100000Y-53380000D03*
D17*
X160100000Y-55920000D03*
X160100000Y-58460000D03*
X160100000Y-61000000D03*
X160100000Y-63540000D03*
X160100000Y-66080000D03*
X160100000Y-68620000D03*
X160100000Y-71160000D03*
X160100000Y-73700000D03*
%TD*%
D33*
%TO.C,D2*%
X135600000Y-125500000D03*
X135600000Y-129500000D03*
%TD*%
D18*
%TO.C,J19*%
X96270000Y-77600000D03*
D15*
X96270000Y-75100000D03*
X96270000Y-72600000D03*
X96270000Y-70100000D03*
X96270000Y-67600000D03*
X96270000Y-65100000D03*
%TD*%
D16*
%TO.C,JP1*%
X162950000Y-83310000D03*
D17*
X162950000Y-85850000D03*
%TD*%
D14*
%TO.C,J11*%
X161500000Y-101100000D03*
D15*
X161500000Y-103600000D03*
X161500000Y-106100000D03*
X161500000Y-108600000D03*
X161500000Y-111100000D03*
X161500000Y-113600000D03*
X161500000Y-116100000D03*
%TD*%
D34*
%TO.C,C2*%
X170685000Y-121500000D03*
X167735000Y-121500000D03*
%TD*%
D24*
%TO.C,J16*%
X120100000Y-78800000D03*
D12*
X117600000Y-78800000D03*
X115100000Y-78800000D03*
X112600000Y-78800000D03*
X110100000Y-78800000D03*
X107600000Y-78800000D03*
X105100000Y-78800000D03*
%TD*%
D26*
%TO.C,R22*%
X162890000Y-79560000D03*
X162890000Y-80580000D03*
%TD*%
D35*
%TO.C,C12*%
X135300000Y-62000000D03*
X134340000Y-62000000D03*
%TD*%
D18*
%TO.C,J13*%
X96320000Y-96550000D03*
D15*
X96320000Y-94050000D03*
X96320000Y-91550000D03*
X96320000Y-89050000D03*
X96320000Y-86550000D03*
X96320000Y-84050000D03*
%TD*%
D14*
%TO.C,J33*%
X173740000Y-106050000D03*
D15*
X173740000Y-108550000D03*
X173740000Y-111050000D03*
X173740000Y-113550000D03*
X173740000Y-116050000D03*
%TD*%
D25*
%TO.C,H1*%
X97100000Y-141000000D03*
%TD*%
D13*
%TO.C,R13*%
X157190000Y-84400000D03*
X158210000Y-84400000D03*
%TD*%
D24*
%TO.C,J1*%
X120100000Y-66550000D03*
D12*
X117600000Y-66550000D03*
X115100000Y-66550000D03*
X112600000Y-66550000D03*
X110100000Y-66550000D03*
X107600000Y-66550000D03*
%TD*%
D18*
%TO.C,J5*%
X96320000Y-115650000D03*
D15*
X96320000Y-113150000D03*
X96320000Y-110650000D03*
X96320000Y-108150000D03*
X96320000Y-105650000D03*
X96320000Y-103150000D03*
%TD*%
D16*
%TO.C,J14*%
X152580000Y-56400000D03*
D17*
X150040000Y-56400000D03*
X147500000Y-56400000D03*
X144960000Y-56400000D03*
%TD*%
D11*
%TO.C,J36*%
X128600000Y-53900000D03*
D12*
X131100000Y-53900000D03*
X133600000Y-53900000D03*
X136100000Y-53900000D03*
X138600000Y-53900000D03*
%TD*%
D14*
%TO.C,J47*%
X126210000Y-66860000D03*
D15*
X126210000Y-69360000D03*
X126210000Y-71860000D03*
X126210000Y-74360000D03*
X126210000Y-76860000D03*
%TD*%
D36*
%TO.C,SW1*%
X104700000Y-143500000D03*
X109750000Y-143500000D03*
X109750000Y-141800000D03*
X104700000Y-141800000D03*
%TD*%
D16*
%TO.C,J8*%
X116920000Y-103800000D03*
D17*
X116920000Y-101260000D03*
X116920000Y-98720000D03*
X116920000Y-96180000D03*
X116920000Y-93640000D03*
X116920000Y-91100000D03*
X116920000Y-88560000D03*
%TD*%
D16*
%TO.C,J3*%
X111840000Y-103800000D03*
D17*
X111840000Y-101260000D03*
X111840000Y-98720000D03*
X111840000Y-96180000D03*
X111840000Y-93640000D03*
X111840000Y-91100000D03*
X111840000Y-88560000D03*
%TD*%
D14*
%TO.C,J34*%
X105100000Y-85200000D03*
D15*
X105100000Y-87700000D03*
X105100000Y-90200000D03*
X105100000Y-92700000D03*
X105100000Y-95200000D03*
%TD*%
D37*
%TO.C,C3*%
X135600000Y-119950000D03*
X135600000Y-121500000D03*
%TD*%
D11*
%TO.C,J29*%
X142100000Y-135000000D03*
D12*
X144600000Y-135000000D03*
X147100000Y-135000000D03*
X149600000Y-135000000D03*
X152100000Y-135000000D03*
X154600000Y-135000000D03*
%TD*%
D10*
%TO.C,R18*%
X126520000Y-86650000D03*
X125500000Y-86650000D03*
%TD*%
D14*
%TO.C,J35*%
X172600000Y-65010000D03*
D15*
X172600000Y-67510000D03*
X172600000Y-70010000D03*
X172600000Y-72510000D03*
X172600000Y-75010000D03*
%TD*%
D38*
%TO.C,J50*%
X114330000Y-141500000D03*
X114330000Y-137600000D03*
X115600000Y-141500000D03*
X115600000Y-137600000D03*
X116870000Y-141500000D03*
X116870000Y-137600000D03*
X118140000Y-141500000D03*
X118140000Y-137600000D03*
X119410000Y-141500000D03*
X119410000Y-137600000D03*
X120680000Y-141500000D03*
X120680000Y-137600000D03*
X121950000Y-141500000D03*
X121950000Y-137600000D03*
%TD*%
D26*
%TO.C,R19*%
X156620000Y-104090000D03*
X156620000Y-105110000D03*
%TD*%
D39*
%TO.C,J48*%
X129080000Y-137050000D03*
X134860000Y-137050000D03*
D40*
X128720000Y-135605000D03*
X129520000Y-135605000D03*
D41*
X130720000Y-135605000D03*
X131720000Y-135605000D03*
X132220000Y-135605000D03*
X133220000Y-135605000D03*
D40*
X134420000Y-135605000D03*
X135220000Y-135605000D03*
X135220000Y-135605000D03*
X134420000Y-135605000D03*
D41*
X133720000Y-135605000D03*
X132720000Y-135605000D03*
X131220000Y-135605000D03*
X130220000Y-135605000D03*
D40*
X129520000Y-135605000D03*
X128720000Y-135605000D03*
D42*
X127650000Y-136520000D03*
D43*
X127650000Y-140700000D03*
D42*
X136290000Y-136520000D03*
D43*
X136290000Y-140700000D03*
%TD*%
D16*
%TO.C,J32*%
X162640000Y-53380000D03*
D17*
X162640000Y-55920000D03*
X162640000Y-58460000D03*
X162640000Y-61000000D03*
X162640000Y-63540000D03*
X162640000Y-66080000D03*
X162640000Y-68620000D03*
X162640000Y-71160000D03*
X162640000Y-73700000D03*
%TD*%
D22*
%TO.C,C35*%
X160880000Y-94175000D03*
X160880000Y-92625000D03*
%TD*%
D24*
%TO.C,J6*%
X120100000Y-72550000D03*
D12*
X117600000Y-72550000D03*
X115100000Y-72550000D03*
X112600000Y-72550000D03*
X110100000Y-72550000D03*
X107600000Y-72550000D03*
%TD*%
D33*
%TO.C,D1*%
X129100000Y-125500000D03*
X129100000Y-129500000D03*
%TD*%
D16*
%TO.C,J2*%
X114380000Y-103800000D03*
D17*
X114380000Y-101260000D03*
X114380000Y-98720000D03*
X114380000Y-96180000D03*
X114380000Y-93640000D03*
X114380000Y-91100000D03*
X114380000Y-88560000D03*
%TD*%
D10*
%TO.C,R16*%
X126510000Y-84400000D03*
X125490000Y-84400000D03*
%TD*%
D44*
%TO.C,C15*%
X137240000Y-61950000D03*
X138200000Y-61950000D03*
%TD*%
D13*
%TO.C,R4*%
X127290000Y-82000000D03*
X128310000Y-82000000D03*
%TD*%
D25*
%TO.C,H3*%
X97100000Y-54000000D03*
%TD*%
D11*
%TO.C,J25*%
X142100000Y-117000000D03*
D12*
X144600000Y-117000000D03*
X147100000Y-117000000D03*
X149600000Y-117000000D03*
X152100000Y-117000000D03*
X154600000Y-117000000D03*
%TD*%
D44*
%TO.C,C6*%
X108420000Y-139520000D03*
X109380000Y-139520000D03*
%TD*%
D27*
%TO.C,R2*%
X130700000Y-132850000D03*
X130700000Y-131830000D03*
%TD*%
D10*
%TO.C,R7*%
X158070000Y-96840000D03*
X157050000Y-96840000D03*
%TD*%
D24*
%TO.C,J18*%
X120080000Y-54480000D03*
D12*
X117580000Y-54480000D03*
X115080000Y-54480000D03*
X112580000Y-54480000D03*
X110080000Y-54480000D03*
X107580000Y-54480000D03*
%TD*%
D45*
%TO.C,U1*%
X170140000Y-126250000D03*
X167600000Y-126250000D03*
X165060000Y-126250000D03*
%TD*%
D11*
%TO.C,J27*%
X142100000Y-123000000D03*
D12*
X144600000Y-123000000D03*
X147100000Y-123000000D03*
X149600000Y-123000000D03*
X152100000Y-123000000D03*
X154600000Y-123000000D03*
%TD*%
D46*
%TO.C,J49*%
X165220000Y-140150000D03*
X170220000Y-140150000D03*
%TD*%
D14*
%TO.C,J10*%
X173740000Y-89300000D03*
D15*
X173740000Y-91800000D03*
X173740000Y-94300000D03*
X173740000Y-96800000D03*
X173740000Y-99300000D03*
%TD*%
D14*
%TO.C,J41*%
X179600000Y-83000000D03*
D15*
X179600000Y-85500000D03*
X179600000Y-88000000D03*
X179600000Y-90500000D03*
X179600000Y-93000000D03*
%TD*%
D14*
%TO.C,J17*%
X167700000Y-101100000D03*
D15*
X167700000Y-103600000D03*
X167700000Y-106100000D03*
X167700000Y-108600000D03*
X167700000Y-111100000D03*
X167700000Y-113600000D03*
X167700000Y-116100000D03*
%TD*%
D14*
%TO.C,J43*%
X179600000Y-101500000D03*
D15*
X179600000Y-104000000D03*
X179600000Y-106500000D03*
X179600000Y-109000000D03*
X179600000Y-111500000D03*
%TD*%
D10*
%TO.C,R24*%
X127040000Y-96010000D03*
X126020000Y-96010000D03*
%TD*%
M02*
